<?xml version="1.0" standalone="no"?>
<!DOCTYPE svg PUBLIC "-//W3C//DTD SVG 20010904//EN"
 "http://www.w3.org/TR/2001/REC-SVG-20010904/DTD/svg10.dtd">
<svg version="1.0" xmlns="http://www.w3.org/2000/svg"
 width="1280.000000pt" height="1280.000000pt" viewBox="0 0 1280.000000 1280.000000"
 preserveAspectRatio="xMidYMid meet">

<g transform="translate(0.000000,1280.000000) scale(0.100000,-0.100000)"
fill="#000000" stroke="none">
<path d="M6245 11308 c-82 -12 -224 -57 -311 -97 -210 -99 -353 -239 -528
-518 l-26 -43 -136 0 c-185 0 -198 -8 -345 -204 -70 -94 -84 -117 -112 -188
l-27 -66 0 -534 0 -533 -86 -65 c-150 -113 -273 -259 -323 -383 -18 -45 -29
-58 -62 -72 -74 -34 -189 -183 -189 -247 0 -10 -18 -29 -40 -43 -52 -33 -101
-87 -142 -156 -32 -54 -36 -57 -112 -83 -103 -35 -181 -88 -218 -145 -23 -36
-43 -53 -101 -81 -40 -20 -98 -55 -130 -79 -75 -57 -187 -191 -267 -319 -34
-56 -78 -115 -96 -132 -40 -36 -159 -210 -202 -296 -16 -33 -35 -79 -42 -104
-8 -31 -26 -58 -60 -89 -64 -62 -93 -137 -95 -252 -2 -85 -3 -87 -47 -150
-148 -207 -199 -355 -200 -575 0 -126 15 -194 65 -288 66 -125 174 -193 288
-183 107 9 146 48 174 172 19 82 38 117 107 197 l52 59 31 -68 c17 -38 46 -80
63 -95 96 -80 227 -16 305 151 31 64 32 71 37 241 3 96 10 182 15 191 6 9 67
62 136 118 70 55 143 120 164 142 37 41 85 130 85 159 0 10 23 20 73 32 158
39 267 119 324 238 29 61 34 66 83 83 51 18 125 79 298 245 36 34 67 62 68 62
2 0 -10 -39 -27 -87 -25 -76 -29 -101 -29 -203 0 -65 -3 -144 -6 -176 -6 -53
-10 -62 -43 -85 -50 -36 -486 -424 -716 -638 -481 -446 -705 -685 -867 -927
-76 -114 -134 -235 -159 -334 -21 -86 -17 -224 10 -292 62 -161 212 -276 436
-334 88 -23 121 -27 270 -27 207 -2 304 15 540 90 59 19 408 165 422 177 2 2
-56 166 -63 178 -3 5 -11 5 -17 0 -43 -33 -382 -161 -522 -197 -403 -103 -786
-24 -871 181 -44 106 12 285 151 484 142 202 487 570 746 796 139 121 389 344
431 386 16 14 28 24 28 21 0 -3 -16 -54 -35 -113 -65 -201 -97 -450 -75 -581
14 -81 49 -187 88 -264 22 -43 25 -65 27 -155 2 -119 23 -190 81 -273 27 -38
34 -57 34 -95 0 -128 103 -372 229 -540 50 -67 72 -106 81 -145 21 -90 80
-236 155 -387 59 -118 73 -157 79 -210 4 -36 16 -120 27 -186 l20 -121 -24
-59 c-13 -33 -34 -90 -47 -127 -23 -70 -106 -204 -219 -354 -89 -119 -197
-287 -236 -368 -79 -162 -108 -381 -71 -518 89 -325 392 -484 672 -351 138 65
226 161 428 464 79 118 170 249 203 290 82 103 240 241 400 348 34 23 83 66
110 97 38 44 54 55 79 55 89 0 182 68 204 150 12 46 24 55 203 152 132 72 284
171 382 249 54 42 89 61 145 78 176 53 265 121 295 223 14 50 21 58 83 99 277
181 658 478 898 699 39 36 102 88 140 116 81 59 135 123 223 265 155 250 201
370 209 550 6 138 -11 235 -64 365 -54 136 -101 212 -179 294 -40 41 -82 97
-94 123 -18 37 -49 69 -143 147 -138 113 -240 169 -366 199 -45 11 -98 29
-117 41 -46 29 -153 70 -181 70 -13 0 -26 6 -31 13 -4 6 -11 167 -14 357 -4
190 -10 359 -14 375 -5 21 6 8 34 -39 50 -83 90 -130 150 -175 25 -19 69 -56
98 -81 54 -50 124 -87 176 -96 18 -3 41 -7 52 -9 12 -3 38 -31 60 -65 77 -119
221 -200 357 -200 47 0 72 -7 135 -39 79 -40 155 -61 218 -61 32 0 35 -3 47
-42 8 -28 29 -59 60 -88 30 -28 48 -55 48 -68 0 -87 131 -201 232 -202 21 0
63 10 95 22 112 41 201 164 237 325 33 147 10 366 -52 496 -30 63 -131 198
-205 275 -37 38 -42 48 -43 91 0 32 -11 69 -29 106 -59 122 -268 348 -372 403
-42 22 -72 47 -92 75 -41 59 -105 117 -203 179 -45 30 -115 79 -155 109 -39
30 -93 68 -119 84 -43 27 -49 36 -64 90 -9 33 -24 75 -34 93 -23 44 -83 110
-116 127 -17 9 -40 42 -67 97 -28 55 -68 113 -120 170 -69 78 -113 118 -274
247 l-42 35 5 531 6 532 -33 76 c-38 86 -205 305 -258 337 -27 17 -51 20 -159
20 -89 0 -130 4 -138 13 -6 6 -35 51 -64 99 -232 374 -577 567 -996 556 -52
-1 -117 -5 -145 -10z m376 -153 c209 -44 421 -181 557 -360 l46 -60 -73 73
c-84 85 -146 128 -254 177 -78 35 -99 32 -27 -5 83 -42 234 -157 306 -232 123
-129 178 -227 221 -393 3 -11 -14 7 -37 40 -127 181 -357 342 -609 424 -141
46 -439 52 -593 12 -100 -26 -250 -89 -322 -135 -31 -20 -62 -33 -68 -30 -6 4
-8 3 -5 -3 4 -6 -10 -23 -31 -39 -111 -84 -228 -220 -272 -315 -25 -56 -25
-42 -1 44 50 173 172 350 321 463 28 21 50 44 50 50 0 7 12 20 28 30 15 9 38
30 51 46 l25 31 -25 -13 c-127 -67 -306 -244 -381 -376 -17 -30 -33 -53 -36
-50 -6 7 77 151 136 236 65 92 174 198 264 254 121 75 285 133 428 150 57 7
230 -4 301 -19z m64 -474 c282 -84 518 -294 588 -523 14 -46 31 -110 36 -142
14 -75 14 -249 1 -341 -17 -117 -108 -284 -208 -381 -93 -90 -267 -190 -402
-230 -41 -13 -68 -23 -60 -23 8 -1 40 6 70 15 30 8 69 17 85 20 17 2 36 6 43
9 16 6 15 0 -3 -19 -17 -16 -172 -66 -263 -85 -205 -42 -508 31 -716 172 -189
128 -366 383 -366 527 l0 55 60 -113 c90 -173 170 -265 314 -364 81 -56 229
-124 322 -149 99 -27 346 -32 434 -10 191 49 382 175 500 332 110 146 148 258
157 464 9 213 -28 350 -128 470 -126 152 -355 249 -615 262 -314 15 -599 -99
-749 -302 -63 -84 -70 -97 -95 -177 -33 -105 -44 -218 -31 -318 17 -137 51
-220 144 -360 l50 -75 -67 65 c-122 118 -187 242 -217 414 -23 133 7 297 77
423 107 193 318 338 574 394 118 26 362 21 465 -10z m-1349 -198 c-14 -45 -46
-178 -46 -192 0 -9 -5 -33 -11 -53 -9 -35 -13 -38 -45 -38 -19 0 -50 -7 -69
-14 -31 -13 -35 -13 -35 1 0 11 -5 9 -19 -8 -52 -67 -52 -69 -46 -361 7 -311
-6 -461 -19 -227 -5 75 -7 219 -4 320 l3 184 48 84 c29 51 47 94 45 108 -2 18
-20 -9 -67 -102 l-64 -125 -9 -128 c-5 -70 -11 -234 -14 -365 -3 -182 -7 -244
-18 -266 -12 -22 -12 -31 -3 -41 9 -10 9 -11 -1 -5 -9 5 -12 1 -10 -11 2 -11
10 -22 18 -26 10 -4 7 -7 -10 -7 -14 -1 -35 -8 -47 -16 -19 -13 -22 -13 -27 1
-3 9 -6 222 -6 473 l0 458 28 54 c37 74 179 275 206 293 28 18 59 23 154 25
66 1 73 -1 68 -16z m2365 -30 c22 -20 76 -90 120 -155 l79 -119 0 -495 c0
-468 -1 -494 -17 -485 -10 5 -26 12 -35 15 -17 5 -18 26 -18 253 0 165 -5 278
-14 338 -8 50 -17 128 -21 175 -4 47 -15 104 -25 126 -17 41 -127 204 -137
204 -2 0 9 -25 25 -55 l30 -55 -68 0 -67 0 -7 83 c-4 45 -13 107 -21 137 -8
30 -15 58 -15 63 0 4 34 7 75 7 72 0 76 -1 116 -37z m-1473 -91 c3 -17 -2 -22
-17 -22 -16 0 -21 6 -21 26 0 33 33 30 38 -4z m-157 -35 c121 -81 70 -260 -79
-275 -135 -12 -206 131 -117 236 52 63 136 79 196 39z m-780 -197 c19 -11 25
-43 13 -74 -5 -12 -21 -16 -63 -17 -31 0 -50 -3 -43 -6 9 -3 12 -43 12 -148 0
-105 3 -145 13 -148 6 -3 2 -6 -11 -6 -38 -2 -79 26 -91 60 -16 46 -14 290 2
313 22 30 129 46 168 26z m2430 -9 c24 -19 24 -22 22 -188 -1 -132 -6 -181
-20 -228 l-19 -60 -17 26 c-24 36 -37 123 -37 245 0 64 -4 104 -12 112 -7 7
-34 12 -60 12 -48 0 -48 0 -48 34 0 63 4 66 90 66 62 0 83 -4 101 -19z m-2283
-223 c5 -163 4 -168 -15 -168 -15 0 -22 9 -27 31 -8 42 -8 317 1 349 6 24 7
24 21 -10 10 -24 16 -89 20 -202z m2023 136 c10 -46 12 -191 3 -258 -5 -36
-11 -46 -25 -46 -18 0 -19 10 -19 134 0 209 16 276 41 170z m-1597 -55 c67
-52 2 -163 -73 -124 -41 21 -57 65 -37 103 24 47 66 55 110 21z m-375 -603
c71 -124 213 -279 321 -351 405 -268 897 -256 1275 32 93 71 206 199 245 277
33 68 23 9 -13 -74 -37 -84 -101 -182 -143 -220 -23 -21 -22 -18 7 17 18 22
42 56 53 75 14 24 5 18 -35 -26 -29 -32 -80 -78 -113 -103 -34 -24 -61 -49
-61 -55 0 -6 -7 -13 -15 -15 -13 -4 -13 -3 0 6 25 18 -3 12 -40 -9 l-35 -19
40 5 c35 5 37 4 20 -7 -11 -7 -22 -15 -25 -19 -3 -4 -20 -15 -38 -24 -18 -9
-30 -21 -27 -26 4 -6 -1 -7 -11 -3 -11 4 -15 3 -11 -5 10 -15 -85 -49 -203
-74 -177 -37 -472 -12 -650 55 -146 55 -296 140 -375 212 l-40 36 55 -39 c54
-39 140 -87 140 -78 0 3 -25 19 -56 36 -123 71 -234 202 -272 323 -21 65 -34
127 -27 127 2 0 17 -24 34 -54z m-155 -246 c16 -33 32 -57 37 -55 4 3 11 0 15
-6 4 -8 3 -9 -4 -5 -7 4 -12 4 -12 1 0 -14 44 -91 56 -98 7 -4 11 -13 8 -20
-2 -7 9 -52 26 -102 16 -49 30 -97 30 -107 0 -10 4 -18 9 -18 5 0 7 -18 4 -40
-5 -34 -3 -40 13 -40 15 0 16 -2 5 -9 -7 -5 -11 -13 -8 -17 2 -5 -10 -16 -28
-25 l-33 -16 -7 43 c-17 119 -97 308 -196 465 -33 52 -45 80 -37 85 11 7 65
22 83 22 6 1 23 -26 39 -58z m2252 42 c10 -5 4 -27 -25 -92 -98 -221 -163
-528 -163 -775 0 -104 -2 -114 -10 -70 -5 28 -10 149 -11 270 -2 259 12 363
74 559 l40 128 41 -6 c23 -4 47 -10 54 -14z m126 -51 c104 -36 102 -32 37
-101 -76 -80 -122 -175 -155 -320 -14 -63 -34 -153 -45 -200 -11 -49 -22 -145
-26 -225 -8 -159 -14 -147 -34 60 -14 157 -6 414 16 500 17 65 130 305 144
305 4 0 33 -9 63 -19z m-2513 -53 c35 -35 61 -55 58 -45 -4 11 -3 16 4 12 6
-4 8 -13 5 -21 -3 -8 8 -33 24 -55 43 -60 120 -305 120 -384 0 -40 -11 -22
-51 83 -18 45 -32 82 -33 82 0 0 -1 -55 -2 -123 0 -67 -4 -153 -9 -192 l-8
-70 -27 102 c-41 151 -69 230 -87 244 -14 12 -15 2 -8 -101 5 -81 2 -154 -9
-248 -9 -74 -16 -137 -16 -140 0 -4 -11 19 -25 52 -26 63 -101 192 -141 241
l-24 30 20 -58 c45 -127 81 -302 87 -412 3 -69 2 -106 -4 -100 -5 6 -32 42
-60 80 -74 102 -252 270 -362 342 -52 34 -97 60 -99 58 -3 -2 9 -20 26 -40 89
-100 183 -292 206 -415 5 -29 -1 -22 -34 39 -52 94 -98 150 -185 223 -69 58
-220 142 -237 132 -15 -9 -58 -12 -58 -4 0 21 81 95 120 110 35 13 49 26 63
56 32 67 96 170 122 194 l24 22 29 -21 c39 -27 55 -27 22 0 -23 20 -23 20 -2
8 13 -8 23 -18 23 -24 -1 -14 130 -144 143 -142 5 1 10 -5 11 -13 0 -16 32
-80 40 -80 2 0 51 38 108 84 58 46 138 106 178 134 41 27 89 66 108 86 29 30
32 36 18 42 -10 3 -23 1 -31 -5 -11 -9 -20 -1 -44 41 -36 64 -123 167 -157
188 -14 8 -25 17 -25 20 0 8 82 49 100 49 8 1 43 -27 79 -61z m14 25 c-3 -7
-10 -10 -16 -6 -8 5 -8 8 0 10 7 3 9 12 6 21 -4 14 -3 14 5 3 6 -8 8 -20 5
-28z m33 -41 c-3 -2 -13 1 -23 7 -11 6 -13 11 -5 11 7 0 10 6 7 13 -4 6 1 3 9
-7 9 -11 14 -21 12 -24z m-295 -15 c-8 -11 -2 -21 30 -46 22 -18 68 -67 101
-109 l60 -76 -33 -28 c-18 -15 -38 -28 -44 -28 -5 0 -21 19 -35 41 -26 42
-140 157 -175 176 -19 11 -19 12 5 32 14 12 37 24 53 27 15 4 30 11 33 15 3 5
8 9 11 9 3 0 0 -6 -6 -13z m2972 -13 c116 -59 322 -238 362 -315 l14 -26 -62
-6 c-115 -11 -125 -26 -35 -51 85 -24 164 -67 233 -128 l56 -51 -42 -19 c-58
-26 -155 -97 -211 -155 -117 -121 -226 -321 -263 -483 -24 -103 -26 -106 -21
-21 6 93 -7 83 -16 -12 -4 -48 -5 -27 -3 63 3 112 8 155 34 254 31 118 50 167
51 136 1 -8 10 8 20 35 11 28 41 75 67 105 l48 54 -40 -23 c-115 -69 -204
-157 -287 -285 l-38 -59 0 64 c0 118 20 338 34 379 7 22 11 40 7 40 -24 -1
-141 -204 -141 -247 -1 -16 -2 -16 -12 2 -18 31 -46 178 -59 310 -14 141 -5
210 26 210 14 0 28 17 49 59 18 38 55 85 98 128 38 37 71 68 74 68 2 0 28 -12
57 -26z m-161 -38 c-4 -6 -7 -14 -7 -18 0 -5 -3 -8 -7 -8 -31 0 -32 1 -18 10
8 5 11 10 7 10 -15 0 2 17 17 17 8 0 12 -5 8 -11z m-2932 -20 c0 -2 -8 -10
-17 -17 -16 -13 -17 -12 -4 4 13 16 21 21 21 13z m2900 -30 c0 -8 -6 -16 -13
-19 -8 -3 -14 1 -14 9 0 7 4 11 9 8 4 -3 8 0 8 5 0 6 2 11 5 11 3 0 5 -6 5
-14z m-2925 -46 c46 -32 112 -102 153 -163 l25 -38 -19 -26 c-41 -55 -49 -54
-109 14 -40 45 -61 61 -76 58 -11 -2 -17 0 -14 6 4 5 11 7 16 4 15 -10 10 7
-8 27 -18 20 -38 25 -27 6 4 -7 3 -8 -5 -4 -6 4 -9 11 -6 15 7 13 -32 44 -46
35 -8 -4 -10 -3 -5 4 10 16 -6 15 -24 0 -7 -7 -3 1 11 18 20 26 77 74 87 74 2
0 23 -13 47 -30z m-177 -100 c-7 -11 -17 -20 -22 -20 -5 0 -1 9 9 20 10 11 20
20 22 20 2 0 -2 -9 -9 -20z m119 -45 c0 -8 -4 -15 -9 -15 -5 0 -6 -5 -3 -10 4
-6 1 -9 -7 -8 -7 2 -12 -3 -10 -10 1 -8 -2 -11 -8 -7 -6 4 -1 18 12 36 25 34
25 33 25 14z m61 -44 c3 -9 -2 -11 -17 -6 -26 8 -27 -3 -3 -22 9 -8 11 -12 5
-8 -7 3 -23 8 -34 10 -12 3 -24 7 -28 11 -3 4 2 4 13 0 13 -4 17 -2 13 8 -3 8
-4 16 -1 18 9 10 48 1 52 -11z m33 -28 c13 -16 12 -17 -3 -4 -10 7 -18 15 -18
17 0 8 8 3 21 -13z m676 -5 c-3 -8 -6 -5 -6 6 -1 11 2 17 5 13 3 -3 4 -12 1
-19z m1760 -25 c-3 -10 -5 -2 -5 17 0 19 2 27 5 18 2 -10 2 -26 0 -35z m-1704
-121 c9 -8 17 -21 17 -29 0 -13 -40 -33 -71 -36 -9 -1 -15 -7 -12 -14 3 -7 -5
-17 -18 -22 -22 -8 -22 -9 14 -16 36 -7 37 -9 37 -50 0 -72 -30 -217 -51 -252
-12 -19 -19 -43 -16 -53 3 -11 2 -20 -3 -20 -4 0 -7 80 -7 178 1 97 -2 197 -7
222 -7 39 -5 49 14 73 37 47 64 52 103 19z m1454 -42 c66 -40 64 -23 61 -493
-2 -290 -6 -429 -14 -437 -7 -7 -200 -12 -623 -14 -571 -2 -614 -1 -634 15
-22 17 -22 19 -22 441 0 394 1 426 18 452 37 55 35 55 632 56 528 0 551 -1
582 -20z m1261 -194 c-10 -7 -16 -15 -15 -17 2 -2 -14 -19 -35 -38 -21 -18
-38 -30 -38 -27 0 12 82 96 94 96 6 0 3 -7 -6 -14z m266 -25 c4 -5 -8 -13 -26
-16 -32 -7 -32 -8 32 -30 96 -32 178 -78 267 -151 43 -36 96 -77 118 -91 61
-41 125 -93 125 -103 0 -4 -27 -11 -60 -15 -33 -4 -58 -10 -55 -15 2 -4 37
-15 77 -24 142 -34 333 -146 249 -146 -25 0 -38 -20 -14 -20 16 -1 96 -39 83
-39 -3 -1 -27 6 -55 14 -35 11 -67 13 -110 8 l-60 -7 45 -7 c49 -8 160 -54
160 -66 0 -5 -37 -7 -82 -7 -87 2 -175 -19 -235 -55 -22 -14 -34 -17 -39 -9
-4 6 -3 9 2 6 5 -3 14 0 21 7 9 10 6 13 -19 11 -23 -1 -32 4 -34 17 -1 9 2 15
7 11 5 -3 9 0 9 5 0 6 6 11 14 11 8 0 17 7 20 16 3 8 11 12 17 8 8 -5 9 -3 4
6 -6 10 -4 12 8 7 10 -3 17 -2 17 3 0 5 19 13 43 19 l42 11 -47 -5 c-127 -12
-334 -164 -423 -310 -34 -55 -36 -57 -30 -25 23 124 159 295 285 359 l65 32
-80 -6 c-52 -4 -84 -11 -91 -20 -6 -8 -16 -15 -23 -15 -24 0 -158 -71 -210
-111 l-54 -41 6 37 c15 89 137 238 242 294 l60 32 -55 -5 c-109 -11 -264 -114
-338 -226 -53 -79 -78 -148 -96 -262 l-14 -93 -1 75 c-1 148 52 313 151 466
24 38 48 76 53 84 13 25 -155 -142 -177 -175 l-19 -30 5 30 c3 17 10 66 17
110 12 85 30 138 56 168 13 13 13 16 2 12 -21 -8 -148 -182 -191 -261 -20 -38
-45 -98 -54 -134 -25 -94 -31 -92 -22 8 16 187 57 303 160 454 74 109 128 164
181 189 47 21 63 23 71 10z m-4258 -16 c70 -29 206 -191 253 -302 27 -63 66
-232 56 -242 -2 -2 -37 47 -76 108 -40 61 -74 110 -76 108 -2 -3 8 -48 22
-102 21 -83 25 -117 24 -234 -1 -75 -5 -149 -9 -166 -7 -26 -8 -27 -9 -6 -3
58 -65 209 -130 314 -82 134 -181 284 -181 276 0 -4 7 -26 16 -50 8 -24 39
-138 69 -254 29 -115 60 -232 69 -260 l15 -50 -26 35 c-98 128 -246 249 -362
296 -80 34 -90 29 -34 -15 63 -50 165 -176 204 -252 l29 -59 -62 51 c-83 67
-179 124 -252 149 -93 32 -107 25 -40 -18 77 -50 137 -119 184 -212 42 -84 56
-140 64 -250 l6 -75 -25 83 c-14 46 -33 98 -41 115 -33 64 -105 156 -165 211
-63 57 -94 69 -47 18 26 -28 44 -58 72 -125 l16 -38 -53 47 c-124 112 -219
153 -362 157 -49 1 -103 -1 -120 -6 -29 -7 -28 -6 15 33 45 39 139 80 188 80
14 0 21 4 16 11 -4 7 -29 10 -65 7 -33 -2 -59 -2 -59 1 1 14 112 86 190 122
47 23 102 49 122 60 20 10 44 19 52 19 9 0 16 5 16 10 0 6 -16 10 -35 10 -19
0 -35 5 -35 10 0 17 88 68 154 90 34 11 75 29 91 40 17 11 45 30 63 41 17 12
32 28 32 37 1 58 86 164 144 181 43 13 43 13 82 -4z m306 -169 c28 -41 4 -16
-61 64 -52 63 -52 64 -7 16 25 -26 56 -62 68 -80z m56 -91 c-3 -3 -9 2 -12 12
-6 14 -5 15 5 6 7 -7 10 -15 7 -18z m952 -17 c1 -7 3 -40 5 -73 2 -33 1 -97
-2 -142 l-6 -81 -66 48 c-36 27 -79 62 -95 79 l-29 30 27 40 c52 75 165 142
166 99z m1745 -120 c62 -71 79 -103 64 -125 -11 -18 -102 -93 -113 -93 -2 0
-6 61 -8 135 -2 74 0 135 4 135 3 0 27 -24 53 -52z m-1884 -165 c13 -15 12
-15 -8 -4 -24 12 -29 21 -14 21 5 0 15 -7 22 -17z m70 -50 c13 -16 12 -17 -3
-4 -10 7 -18 15 -18 17 0 8 8 3 21 -13z m-100 -139 c25 -12 34 -13 47 -3 16
12 16 12 1 -5 -16 -17 -18 -17 -55 3 -22 11 -35 20 -31 21 4 0 22 -7 38 -16z
m3489 6 c0 -5 -7 -7 -15 -4 -14 6 -20 -6 -16 -29 1 -5 -3 -6 -9 -2 -14 9 6 45
25 45 8 0 15 -4 15 -10z m-5412 -60 c44 0 85 -22 150 -84 47 -44 112 -125 112
-139 0 -3 -28 23 -63 57 -75 73 -141 110 -221 125 -58 11 -136 14 -91 4 11 -2
27 -7 35 -10 8 -3 34 -7 58 -9 44 -4 133 -45 112 -52 -6 -2 -19 3 -29 12 -21
19 -35 21 -26 4 4 -7 0 -5 -8 4 -11 14 -16 15 -27 5 -7 -7 -10 -7 -7 -2 3 6
-13 10 -39 11 -24 0 -44 -3 -44 -7 0 -5 -7 -6 -16 -2 -14 5 -13 8 7 20 24 14
24 14 -6 8 -16 -4 -37 -6 -45 -6 -25 0 -96 19 -80 21 8 1 0 6 -19 11 -31 10
-32 11 -15 25 15 12 40 14 124 9 58 -3 120 -6 138 -5z m3255 -57 c6 -3 -13
-14 -41 -24 -91 -31 -205 -42 -371 -37 -145 5 -159 8 -201 32 -25 14 -56 26
-69 26 -30 0 -21 -10 34 -39 22 -12 35 -21 30 -21 -6 0 3 -7 19 -15 15 -8 38
-15 50 -14 11 0 15 3 9 6 -35 14 0 18 134 15 91 -3 140 -7 128 -12 -28 -12 45
-12 103 -1 24 5 40 5 35 1 -28 -28 -368 -40 -435 -16 -20 7 -61 29 -90 48 -29
19 -62 39 -73 44 -32 14 146 21 453 17 151 -2 279 -6 285 -10z m-3382 -64 c33
-8 79 -39 79 -52 0 -8 -62 13 -74 24 -12 11 -56 12 -56 2 1 -5 37 -32 81 -62
45 -30 99 -77 122 -105 48 -61 101 -171 116 -244 16 -78 14 -82 -18 -27 -78
136 -267 237 -392 210 l-33 -7 46 -18 c128 -49 230 -138 279 -246 16 -35 29
-65 29 -67 0 -2 -22 17 -48 42 -49 47 -184 125 -203 119 -6 -2 14 -33 45 -70
31 -36 56 -68 56 -71 0 -4 -16 4 -35 17 -49 34 -172 84 -262 107 -83 21 -150
24 -201 10 -17 -5 -32 -7 -32 -5 0 17 25 46 50 59 37 19 39 34 5 27 -34 -6
-32 7 10 61 45 60 82 84 144 99 55 12 52 28 -6 28 -40 0 -41 8 -7 63 38 60 75
97 98 97 12 0 39 7 61 15 39 15 73 13 146 -6z m2579 -5 c76 -24 153 -93 192
-171 29 -60 33 -77 33 -148 0 -71 -4 -88 -33 -147 -43 -88 -104 -142 -190
-168 -82 -25 -83 -25 -115 8 l-26 28 65 12 c81 15 133 41 168 83 77 91 99 205
55 291 -37 74 -69 106 -132 138 -50 25 -72 30 -131 30 -90 0 -136 -21 -198
-87 -71 -77 -97 -188 -63 -269 l15 -36 -28 6 c-35 9 -48 27 -56 75 -13 85 27
202 94 274 86 94 216 124 350 81z m1168 -13 c62 -32 124 -97 157 -166 24 -49
29 -70 29 -139 0 -68 -4 -90 -27 -136 -40 -83 -80 -125 -155 -162 -60 -30 -75
-33 -152 -33 -72 0 -93 4 -142 28 -74 36 -134 96 -166 165 -22 47 -27 71 -27
137 0 68 4 88 29 137 47 93 115 153 211 185 61 20 190 12 243 -16z m2317 0
c76 -34 199 -127 222 -169 12 -20 27 -56 34 -80 10 -34 21 -48 50 -62 73 -38
100 -94 116 -240 10 -99 -28 -222 -93 -300 -55 -65 -157 -108 -183 -77 -10 12
-6 19 23 36 48 30 104 95 130 150 17 37 21 66 22 151 0 58 -2 109 -4 114 -3 5
-18 -20 -34 -55 -65 -143 -122 -200 -215 -215 -61 -9 -57 17 17 106 46 55 69
99 86 165 18 66 17 92 -3 154 l-16 52 -29 -60 c-46 -97 -148 -171 -206 -150
-31 12 -29 71 4 128 13 25 23 50 20 56 -2 6 -47 39 -100 73 -91 58 -95 60
-102 39 -22 -71 -90 -114 -198 -124 l-64 -6 -11 -60 c-16 -89 -34 -98 -67 -35
-22 43 -21 116 4 164 43 84 194 201 325 250 80 31 195 29 272 -5z m-1630 -40
c76 -21 95 -39 95 -88 0 -33 0 -33 -25 -17 -13 9 -55 26 -92 39 -63 21 -68 25
-71 54 -4 37 0 38 93 12z m-2782 2 c-7 -2 -19 -2 -25 0 -7 3 -2 5 12 5 14 0
19 -2 13 -5z m-82 -20 c-24 -8 -39 -18 -35 -22 20 -14 12 -30 -19 -40 -29 -10
-87 -54 -87 -67 0 -3 15 -2 33 1 31 7 31 7 16 -11 -9 -11 -20 -30 -24 -42 -6
-22 -5 -23 17 -17 12 4 40 16 62 27 21 11 58 26 82 33 37 11 44 11 48 -2 10
-24 0 -30 -87 -58 -45 -15 -102 -41 -126 -58 l-44 -30 7 69 c4 38 7 86 6 106
-1 30 5 41 35 63 20 16 41 25 50 21 9 -3 14 -2 11 3 -6 10 59 40 84 40 8 0 -5
-8 -29 -16z m1015 -11 c47 -24 94 -75 126 -135 31 -58 30 -146 -1 -207 -47
-91 -103 -131 -214 -151 -64 -12 -67 -11 -104 13 -75 50 -144 110 -164 141
-22 37 -26 127 -7 191 15 51 111 150 159 165 52 16 158 7 205 -17z m-926 -7
c0 -8 -7 -15 -15 -15 -13 0 -14 3 -3 15 16 18 18 18 18 0z m-73 -21 c-3 -3
-12 -4 -19 -1 -8 3 -5 6 6 6 11 1 17 -2 13 -5z m328 -33 c44 -11 92 -23 108
-26 24 -5 26 -8 16 -27 -10 -18 -17 -20 -70 -15 -64 6 -113 29 -137 65 -18 27
-16 27 83 3z m2285 -30 c0 -27 -8 -31 -102 -47 -65 -11 -83 -12 -90 -2 -14 22
-9 26 48 33 31 4 72 13 92 20 50 18 52 18 52 -4z m173 -18 c-7 -2 -19 -2 -25
0 -7 3 -2 5 12 5 14 0 19 -2 13 -5z m86 -19 c57 -16 71 -37 71 -100 l0 -35
-47 28 c-26 15 -67 32 -92 39 -41 10 -46 14 -48 43 -2 17 2 31 8 31 6 0 9 -6
6 -14 -3 -8 1 -22 8 -33 9 -10 14 -13 15 -5 0 6 8 12 18 12 15 0 15 -2 2 -11
-12 -9 -12 -10 4 -5 11 4 23 1 28 -6 5 -8 8 -1 8 20 0 21 -5 32 -14 32 -8 0
-16 -3 -19 -7 -2 -5 -2 -3 -1 4 2 6 -2 14 -9 17 -28 11 13 5 62 -10z m-2544
-29 c106 -14 105 -13 105 -52 0 -26 -4 -34 -14 -30 -8 3 -32 10 -53 16 -21 5
-57 15 -79 20 -43 11 -58 29 -48 56 4 10 11 12 22 6 10 -5 40 -12 67 -16z
m2265 -19 c0 -21 -21 -33 -74 -41 -27 -3 -55 -9 -62 -12 -10 -4 -14 4 -14 25
0 31 1 31 58 35 31 2 65 4 75 5 9 1 17 -4 17 -12z m10 -96 c0 -6 -12 -15 -27
-21 -26 -10 -145 -29 -151 -24 -1 1 0 9 3 18 9 23 175 49 175 27z m-2711 -50
c-48 -43 -61 -49 -52 -22 8 24 54 62 77 62 14 0 8 -10 -25 -40z m2986 3 c21
-7 43 -19 47 -26 9 -14 10 -83 2 -115 l-6 -22 -34 29 c-18 17 -50 33 -70 37
-37 7 -37 7 -12 18 24 11 24 12 6 29 -10 9 -18 12 -18 6 0 -5 -6 -7 -12 -4 -7
4 -5 0 5 -8 16 -14 16 -15 -5 -20 -12 -4 -24 -4 -27 -2 -2 3 0 5 6 5 6 0 8 20
5 51 l-5 50 39 -7 c22 -4 57 -13 79 -21z m-2495 -97 c101 -18 185 -54 286
-122 179 -121 256 -236 362 -545 61 -177 126 -421 119 -442 -2 -7 -41 64 -87
157 -89 181 -157 290 -214 345 l-35 34 44 -87 c41 -82 74 -196 91 -309 l6 -47
-83 40 c-142 67 -320 101 -445 85 l-59 -8 84 -18 c201 -44 388 -150 519 -293
64 -71 92 -117 41 -69 -53 50 -155 92 -275 114 -59 10 -109 17 -111 15 -2 -2
28 -22 67 -46 69 -42 104 -72 64 -55 -101 42 -141 49 -279 48 -91 0 -172 -6
-230 -17 -102 -20 -280 -89 -358 -140 -65 -42 -171 -149 -213 -217 -43 -67
-43 -67 -33 -12 23 121 53 208 94 269 52 77 31 69 -50 -18 l-58 -63 6 38 c9
58 72 180 127 246 123 147 358 270 578 301 59 8 53 8 -43 4 -207 -10 -355 -54
-495 -149 -63 -42 -116 -88 -155 -134 l-60 -70 -3 62 c-7 149 111 394 275 567
72 77 67 88 -21 44 -92 -46 -216 -154 -251 -219 -16 -30 -17 -29 -10 34 9 86
48 240 80 308 106 233 330 380 580 382 39 0 104 -6 145 -13z m-2193 -45 c34
-18 70 -43 80 -55 18 -21 18 -21 -3 -3 -38 32 -131 50 -264 51 -148 1 -168 -3
-197 -46 -13 -18 -23 -28 -23 -21 0 22 54 76 95 95 33 16 58 18 145 15 96 -3
111 -6 167 -36z m3326 -28 c-23 -2 -64 -2 -90 0 -26 2 -7 3 42 3 50 0 71 -1
48 -3z m1284 -9 c-3 -3 -12 -4 -19 -1 -8 3 -5 6 6 6 11 1 17 -2 13 -5z m109
-71 c15 -35 19 -83 7 -83 -5 0 -39 8 -78 17 -42 11 -61 19 -47 21 21 3 27 13
22 37 -3 18 18 -9 23 -30 3 -11 3 3 0 30 -3 28 -10 55 -15 62 -6 8 6 6 33 -5
30 -12 45 -25 55 -49z m-151 -33 c3 -5 1 -10 -4 -10 -6 0 -11 5 -11 10 0 6 2
10 4 10 3 0 8 -4 11 -10z m-4773 -91 c125 -42 239 -114 298 -189 l30 -38 -41
15 c-23 7 -50 11 -60 8 -17 -6 -15 -10 18 -34 130 -94 159 -245 78 -407 -20
-41 -43 -78 -52 -81 -27 -11 -45 23 -53 100 -9 93 -34 144 -106 222 -45 48
-55 55 -52 36 3 -21 -3 -25 -67 -41 -61 -15 -75 -23 -117 -69 -27 -29 -48 -59
-48 -67 0 -8 -4 -14 -10 -14 -5 0 -19 33 -31 73 -12 39 -26 76 -31 82 -5 6 -7
-69 -3 -192 5 -172 3 -207 -10 -233 -19 -36 -25 -37 -53 -7 -41 44 -81 171
-83 266 0 35 -1 35 -11 11 -6 -14 -12 -86 -12 -160 -1 -126 1 -138 25 -187 14
-29 23 -53 19 -53 -15 0 -51 49 -76 105 -76 170 -18 434 141 645 31 41 66 91
77 110 12 19 37 54 55 78 30 37 39 42 74 42 22 0 67 -9 101 -21z m3653 -35
l110 -7 -104 -34 c-154 -50 -270 -46 -439 15 l-74 27 109 6 c111 6 208 4 398
-7z m885 -68 c0 -2 -20 -16 -45 -31 -27 -15 -43 -31 -39 -37 4 -7 2 -8 -4 -4
-14 9 -71 -29 -227 -153 -155 -122 -265 -235 -378 -388 -49 -68 -92 -122 -94
-120 -8 8 60 186 98 256 49 91 132 195 197 247 62 50 71 59 45 45 -28 -14 -36
-14 -27 0 4 7 -13 0 -37 -15 -24 -14 -43 -31 -41 -37 1 -6 -2 -8 -8 -4 -15 9
-153 -97 -245 -190 -45 -44 -101 -110 -125 -147 -24 -37 -46 -66 -48 -64 -7 8
87 183 130 241 93 125 226 236 377 312 77 39 147 60 251 78 71 12 220 20 220
11z m490 -20 l85 -12 -97 -23 c-107 -24 -202 -68 -243 -111 -21 -22 -72 -150
-60 -150 2 0 35 15 72 34 210 106 468 145 656 101 78 -19 100 -34 50 -36 -16
0 -37 -4 -48 -9 -18 -8 -18 -9 5 -9 43 -1 187 -52 242 -85 52 -31 78 -64 42
-52 -59 18 -168 25 -244 15 -63 -8 -202 -47 -216 -62 -1 -1 55 0 124 2 281 8
469 -78 597 -274 103 -157 121 -299 48 -386 -47 -55 -71 -60 -321 -61 -125 0
-216 -3 -202 -5 71 -14 248 -116 350 -203 l34 -30 -85 0 c-81 0 -87 2 -154 41
-141 82 -235 130 -331 169 -53 22 -102 40 -107 40 -5 0 32 -43 82 -97 127
-133 260 -328 239 -348 -19 -19 -246 138 -433 300 -116 100 -262 195 -299 195
-9 0 -16 4 -16 10 0 11 68 59 125 87 62 32 218 81 279 88 31 4 56 11 56 15 0
14 -188 33 -252 26 -73 -9 -200 -48 -246 -76 -44 -27 -50 -25 -20 8 13 15 50
61 80 102 70 94 175 196 225 217 51 21 26 28 -50 14 -228 -44 -401 -163 -556
-385 -47 -68 -49 -64 -20 29 42 137 107 257 188 349 l36 41 -41 -32 c-76 -59
-231 -202 -248 -228 -28 -43 -28 -23 0 66 62 197 194 422 283 481 40 27 17 21
-62 -15 -82 -38 -206 -134 -265 -205 -21 -26 -58 -77 -81 -114 -24 -38 -45
-68 -47 -68 -3 0 -2 5 1 10 4 6 15 43 26 82 22 77 85 212 125 265 30 39 30 47
2 33 -22 -11 -22 -10 -4 4 10 9 22 13 26 11 12 -7 43 33 35 45 -3 6 -3 9 2 8
11 -4 163 118 157 126 -2 3 -1 4 2 1 4 -2 28 7 55 21 93 47 265 63 419 40z
m-1830 -64 c176 -75 218 -85 394 -90 152 -4 158 -5 125 -19 -161 -68 -294 -86
-439 -58 -104 20 -111 26 -174 152 -41 82 -43 92 -18 71 9 -8 60 -33 112 -56z
m860 -117 c0 -2 -15 -12 -32 -20 l-33 -16 25 20 c24 20 40 26 40 16z m143
-108 c-23 -24 -98 -140 -94 -145 1 -1 -9 -26 -23 -55 -14 -28 -23 -41 -20 -27
16 65 138 270 152 255 3 -3 -4 -15 -15 -28z m95 3 c-7 -10 -14 -17 -17 -15 -4
4 18 35 25 35 2 0 -1 -9 -8 -20z m3 -37 c-12 -20 -14 -14 -5 12 4 9 9 14 11
11 3 -2 0 -13 -6 -23z m-256 -278 c-7 -28 -14 -43 -14 -35 -1 19 19 93 24 88
2 -2 -2 -26 -10 -53z m-1645 -324 c0 -5 -25 -13 -56 -17 -31 -3 -51 -10 -45
-13 6 -4 -4 -7 -22 -7 -61 -1 -295 -115 -290 -142 2 -6 -4 -9 -12 -6 -23 9
-175 -150 -209 -218 -16 -32 -34 -58 -39 -58 -5 0 -6 -7 -3 -16 3 -8 2 -12 -3
-9 -5 3 -12 -3 -14 -12 -3 -10 -5 -5 -6 12 -4 113 137 312 276 389 69 39 206
85 282 95 93 12 141 13 141 2z m73 -8 c-7 -2 -19 -2 -25 0 -7 3 -2 5 12 5 14
0 19 -2 13 -5z m90 -10 c-7 -2 -19 -2 -25 0 -7 3 -2 5 12 5 14 0 19 -2 13 -5z
m54 -9 c-3 -3 -12 -4 -19 -1 -8 3 -5 6 6 6 11 1 17 -2 13 -5z m40 -10 c-3 -3
-12 -4 -19 -1 -8 3 -5 6 6 6 11 1 17 -2 13 -5z m-461 -39 c-11 -8 -25 -15 -30
-15 -6 1 0 7 14 15 32 19 40 18 16 0z m579 -13 c-3 -3 -11 0 -18 7 -9 10 -8
11 6 5 10 -3 15 -9 12 -12z m-555 -2 c-8 -5 -19 -10 -25 -10 -5 0 -3 5 5 10 8
5 20 10 25 10 6 0 3 -5 -5 -10z m2605 -112 c33 -17 62 -34 63 -39 2 -5 8 -7
13 -3 5 3 9 0 9 -6 0 -6 4 -9 9 -6 5 3 13 0 19 -7 8 -10 6 -13 -9 -13 -10 0
-19 4 -19 9 0 4 -5 5 -11 2 -6 -5 -3 -13 10 -22 12 -8 26 -11 31 -8 6 4 9 2 8
-3 -3 -8 109 -127 200 -215 27 -26 24 -41 -10 -45 -17 -2 -34 7 -56 29 -18 18
-32 29 -32 24 0 -4 -9 0 -21 11 -12 10 -23 18 -25 17 -2 -2 -12 -3 -21 -2 -15
0 -15 2 2 9 13 5 26 3 38 -8 9 -8 19 -13 22 -10 3 3 -22 35 -56 71 -55 61 -79
74 -79 45 0 -6 3 -9 6 -5 3 3 13 -2 23 -11 14 -14 15 -19 3 -31 -7 -7 -16 -10
-20 -6 -4 4 -1 10 6 12 6 3 9 9 6 15 -4 6 -10 5 -16 -3 -7 -11 -11 -11 -15 -1
-2 6 -9 12 -14 12 -16 0 -184 130 -184 142 0 6 10 12 22 13 12 1 21 -1 19 -4
-2 -3 22 -25 53 -49 l56 -44 -47 47 c-52 50 -59 62 -29 45 32 -17 38 -11 8 8
-15 10 -24 23 -20 27 5 5 -1 3 -11 -5 -18 -14 -19 -13 -13 2 6 16 -15 43 -25
32 -3 -3 -9 0 -13 6 -12 19 51 2 120 -32z m-1894 15 c13 -16 12 -17 -3 -4 -10
7 -18 15 -18 17 0 8 8 3 21 -13z m1669 -37 c0 -2 -8 -10 -17 -17 -16 -13 -17
-12 -4 4 13 16 21 21 21 13z m-1980 -67 c161 -20 306 -117 388 -261 35 -60 41
-85 14 -53 -34 41 -138 119 -191 143 -29 14 -86 33 -125 43 -199 52 -438 -13
-583 -158 -74 -73 -109 -126 -125 -189 -13 -46 -13 -46 -19 -18 -4 16 -7 52
-8 81 0 28 -5 54 -10 57 -11 7 -38 -93 -46 -174 -5 -60 19 -245 40 -305 18
-51 -50 72 -99 180 -91 198 -101 269 -56 388 20 51 68 122 77 113 3 -3 0 -13
-8 -23 -12 -15 -11 -15 14 1 29 19 36 16 14 -6 -18 -19 -57 -75 -57 -83 0 -4
24 19 53 51 161 177 418 252 727 213z m-670 -76 c-25 -26 -48 -49 -53 -51 -4
-2 -4 -9 -1 -14 5 -7 2 -8 -5 -3 -9 5 3 23 40 61 66 67 80 71 19 7z m2679 -58
c17 -9 36 -13 42 -10 5 4 8 1 7 -6 -2 -6 2 -13 9 -16 8 -3 11 3 8 18 -2 12 -1
18 3 15 4 -4 7 -17 7 -28 0 -12 6 -23 14 -26 9 -3 11 0 6 9 -5 8 -4 11 1 6 5
-5 9 -12 9 -16 0 -4 42 -47 94 -97 52 -49 125 -124 163 -167 37 -42 68 -74 68
-70 0 4 16 -8 35 -27 41 -40 44 -58 10 -90 -20 -19 -32 -22 -74 -18 -61 6
-124 45 -241 148 -47 41 -113 99 -147 128 l-62 53 59 -125 c33 -70 89 -182
126 -251 36 -69 63 -125 59 -125 -22 0 -293 227 -341 286 -21 25 -40 42 -41
37 -5 -15 35 -189 63 -272 14 -41 40 -108 59 -148 18 -40 31 -73 29 -73 -16 0
-97 66 -150 121 -61 65 -131 180 -154 254 -22 72 -30 62 -30 -39 0 -141 29
-276 96 -440 7 -19 6 -19 -22 1 -80 57 -180 169 -256 287 l-38 59 6 -49 c19
-153 76 -337 155 -496 27 -56 48 -103 46 -105 -5 -4 -129 109 -192 175 -27 30
-78 93 -112 140 -121 169 -136 217 -93 302 97 191 254 328 397 346 48 6 54 9
40 19 -10 7 -42 20 -72 30 -30 9 -55 20 -55 25 0 4 28 49 63 101 81 122 133
160 226 168 68 7 122 -4 180 -34z m345 0 c-7 -16 -24 -21 -24 -6 0 8 7 13 27
20 1 1 0 -6 -3 -14z m26 -24 c0 -13 -49 -20 -57 -8 -3 5 -2 7 3 4 6 -3 16 -2
24 4 19 11 30 11 30 0z m-219 -48 c13 -16 12 -17 -3 -4 -10 7 -18 15 -18 17 0
8 8 3 21 -13z m403 -74 c-3 -5 -10 -7 -15 -3 -5 3 -7 10 -3 15 3 5 10 7 15 3
5 -3 7 -10 3 -15z m-2506 -4 c84 -20 135 -48 198 -107 44 -42 114 -142 114
-163 0 -3 -16 10 -35 30 -135 134 -412 165 -627 68 -79 -35 -178 -139 -207
-218 -54 -143 -48 -354 14 -550 15 -49 -31 47 -56 116 -101 278 -69 531 90
689 123 123 329 177 509 135z m2537 -25 c10 -11 16 -20 13 -20 -3 0 -13 9 -23
20 -10 11 -16 20 -13 20 3 0 13 -9 23 -20z m-1666 -102 c88 -30 107 -32 226
-33 l131 0 -77 -100 c-41 -55 -92 -129 -112 -165 l-36 -65 -69 -18 c-110 -28
-164 -84 -206 -212 -9 -28 -34 -74 -55 -103 -22 -28 -51 -83 -66 -121 -23 -62
-30 -70 -58 -77 -18 -3 -45 -13 -60 -21 -29 -14 -29 -14 -23 14 27 138 28 150
29 700 l1 161 50 7 c28 4 87 19 131 35 44 15 84 28 89 29 5 0 52 -13 105 -31z
m184 -518 c14 -11 57 -80 95 -153 38 -72 89 -164 114 -202 48 -76 70 -115 41
-75 -10 14 -50 57 -89 95 -39 39 -88 98 -108 133 -21 34 -42 60 -47 57 -5 -4
-7 0 -4 7 3 7 -6 31 -20 53 -13 22 -25 33 -25 24 0 -9 -9 -24 -20 -34 -11 -10
-20 -24 -20 -32 0 -17 -18 -17 -36 1 -16 17 -19 62 -3 71 5 4 8 12 6 18 -5 15
14 34 45 46 34 14 43 13 71 -9z m-28 -90 c3 -5 1 -10 -4 -10 -6 0 -11 5 -11
10 0 6 2 10 4 10 3 0 8 -4 11 -10z m-69 -363 c30 -78 71 -170 90 -205 19 -34
34 -65 34 -68 0 -3 -12 3 -27 14 -16 11 -48 30 -73 42 -109 55 -260 204 -260
257 0 40 60 142 99 169 l36 24 23 -46 c13 -25 48 -109 78 -187z m-896 -42
c-17 -20 -162 -65 -208 -64 l-37 0 45 21 c44 19 171 56 199 57 11 1 11 -2 1
-14z m635 -11 c8 -9 25 -34 36 -56 11 -21 35 -63 53 -91 33 -51 127 -240 122
-244 -1 -2 -37 29 -79 67 -53 49 -85 89 -106 131 l-30 60 -17 -38 c-10 -22
-18 -64 -18 -98 -1 -53 5 -72 48 -155 26 -52 61 -115 78 -139 35 -52 25 -50
-73 15 -84 55 -145 126 -193 221 -42 85 -68 182 -54 206 17 32 176 135 210
137 4 0 14 -7 23 -16z m-516 -205 c-78 -62 -227 -109 -344 -109 l-70 0 67 35
c61 31 175 71 267 93 18 4 50 6 69 4 l35 -5 -24 -18z m71 -139 c0 -5 -7 -7
-15 -4 -8 4 -15 1 -15 -4 0 -6 9 -9 19 -7 37 7 113 -143 110 -214 -2 -26 -2
-26 -6 -2 -5 27 -33 61 -33 40 0 -7 -3 -9 -7 -5 -5 4 1 14 11 22 16 11 17 14
4 14 -9 0 -18 6 -21 13 -11 31 -14 -3 -4 -50 8 -40 8 -65 -2 -102 -7 -28 -10
-55 -6 -61 3 -5 -1 -10 -9 -10 -9 0 -16 -4 -16 -10 0 -13 21 -9 39 8 12 12 12
15 0 24 -11 8 -11 9 3 4 20 -6 27 3 34 41 7 35 14 43 14 14 0 -27 -25 -78 -53
-108 -21 -24 -44 -32 -31 -11 4 7 3 8 -5 4 -6 -4 -9 -12 -5 -17 8 -13 -70 -46
-155 -65 -65 -15 -76 -15 -147 1 -65 14 -82 23 -118 58 -23 23 -50 60 -61 82
-26 53 -26 145 1 200 17 34 25 40 64 48 69 13 227 54 310 81 83 28 100 31 100
16z m-610 -540 c47 -88 157 -198 239 -238 35 -18 72 -32 83 -32 24 0 23 -11
-9 -73 -14 -29 -31 -69 -38 -90 l-11 -37 -114 107 c-98 93 -112 104 -106 78
11 -45 77 -177 148 -296 l64 -106 -56 38 c-30 22 -103 84 -162 140 -60 55
-108 98 -108 95 0 -4 13 -30 29 -59 16 -28 43 -87 60 -130 17 -43 43 -101 57
-129 14 -27 23 -53 19 -56 -3 -3 -62 52 -130 122 -69 71 -125 121 -125 112 0
-21 41 -129 74 -194 l27 -53 -40 21 c-56 28 -109 77 -143 129 l-28 45 0 -80
c0 -85 -3 -91 -57 -121 -33 -19 -43 8 -43 114 -1 77 -2 86 -14 70 -20 -27 -56
-166 -59 -228 -1 -30 1 -76 5 -104 l7 -50 -20 60 c-17 49 -20 77 -16 150 8
159 77 316 254 579 93 138 93 138 93 201 0 54 24 151 46 187 4 6 15 -15 24
-48 9 -32 31 -88 50 -124z m728 38 c-27 -41 -115 -105 -175 -128 -162 -62
-348 -16 -442 110 -24 33 -23 32 26 -11 60 -53 143 -88 229 -96 117 -11 269
41 340 116 34 37 42 40 22 9z m-972 -227 c-9 -16 -52 -85 -97 -153 -190 -289
-248 -486 -200 -672 12 -44 35 -101 52 -128 32 -49 123 -138 142 -138 6 0 8
-3 4 -6 -11 -11 -105 56 -156 112 -103 112 -133 273 -85 457 33 131 172 372
302 526 47 55 66 56 38 2z"/>
<path d="M5730 9278 c0 -11 149 -117 198 -142 76 -38 75 -26 0 14 -61 32 -81
45 -160 104 -21 16 -38 26 -38 24z"/>
<path d="M6598 9033 c7 -3 16 -2 19 1 4 3 -2 6 -13 5 -11 0 -14 -3 -6 -6z"/>
<path d="M5978 8863 c7 -3 16 -2 19 1 4 3 -2 6 -13 5 -11 0 -14 -3 -6 -6z"/>
<path d="M7686 8355 c-3 -9 -6 -26 -5 -38 1 -16 4 -12 10 12 10 34 6 55 -5 26z"/>
<path d="M5952 7908 l3 -273 344 -3 c269 -2 346 1 353 10 4 7 8 131 8 276 l0
262 -355 0 -355 0 2 -272z m308 202 c0 -5 -2 -10 -4 -10 -3 0 -8 5 -11 10 -3
6 -1 10 4 10 6 0 11 -4 11 -10z m0 -257 c0 -5 -30 -7 -67 -5 -119 5 -131 9
-30 10 53 1 97 -1 97 -5z m230 0 c-51 -3 -87 -9 -92 -16 -5 -8 -8 -6 -8 6 0
15 10 17 93 15 l92 -2 -85 -3z"/>
<path d="M6810 8157 c-52 -26 -65 -93 -25 -132 18 -19 35 -25 69 -25 47 0 71
15 87 57 24 64 -66 134 -131 100z"/>
<path d="M6757 7933 c-4 -3 -7 -13 -7 -21 0 -13 16 -14 100 -9 103 6 125 12
115 28 -7 10 -198 13 -208 2z"/>
<path d="M6792 7824 c-17 -12 -22 -25 -22 -59 0 -54 25 -75 86 -75 34 0 47 5
63 26 12 15 21 39 21 55 0 55 -95 90 -148 53z"/>
<path d="M6744 7629 c-6 -11 7 -17 54 -25 49 -8 178 4 166 16 -12 10 -213 19
-220 9z"/>
<path d="M5559 7933 c-13 -16 -12 -17 4 -4 9 7 17 15 17 17 0 8 -8 3 -21 -13z"/>
<path d="M3268 7423 c7 -3 16 -2 19 1 4 3 -2 6 -13 5 -11 0 -14 -3 -6 -6z"/>
<path d="M3328 7413 c7 -3 16 -2 19 1 4 3 -2 6 -13 5 -11 0 -14 -3 -6 -6z"/>
<path d="M6862 7239 c-72 -35 -115 -88 -138 -168 -37 -124 34 -271 157 -326
53 -23 71 -27 123 -23 114 10 193 67 244 177 44 97 18 213 -67 299 -79 79
-210 96 -319 41z m212 9 c49 -15 133 -94 161 -153 29 -63 26 -159 -8 -217 -73
-126 -238 -180 -348 -116 -143 84 -191 256 -108 382 63 94 188 138 303 104z"/>
<path d="M6899 7180 c-51 -27 -107 -92 -115 -135 -29 -158 106 -295 252 -256
110 30 191 151 165 248 -16 59 -66 122 -114 144 -55 24 -140 24 -188 -1z"/>
<path d="M5775 7187 c-89 -42 -141 -151 -115 -246 20 -76 119 -161 186 -161
79 0 166 57 203 133 43 89 15 195 -67 252 -35 24 -55 30 -110 32 -42 2 -78 -2
-97 -10z"/>
<path d="M7466 7038 c7 -11 84 -7 84 4 0 5 -20 7 -44 6 -24 -2 -42 -6 -40 -10z"/>
<path d="M7438 7023 c7 -3 16 -2 19 1 4 3 -2 6 -13 5 -11 0 -14 -3 -6 -6z"/>
<path d="M7800 6875 c0 -8 4 -15 8 -15 5 0 9 7 9 15 0 8 -4 15 -9 15 -4 0 -8
-7 -8 -15z"/>
<path d="M5105 6651 c-87 -25 -148 -57 -216 -113 -60 -50 -76 -78 -22 -39 37
27 140 65 236 86 117 26 306 17 407 -18 70 -25 73 -25 50 -6 -40 34 -150 86
-208 98 -75 16 -177 13 -247 -8z"/>
<path d="M7085 6270 c-3 -6 1 -7 9 -4 18 7 21 14 7 14 -6 0 -13 -4 -16 -10z"/>
<path d="M6616 4205 c-9 -26 -7 -32 5 -12 6 10 9 21 6 23 -2 3 -7 -2 -11 -11z"/>
<path d="M5486 3032 c-3 -5 1 -9 9 -9 8 0 12 4 9 9 -3 4 -7 8 -9 8 -2 0 -6 -4
-9 -8z"/>
<path d="M5530 2986 c0 -2 8 -10 18 -17 15 -13 16 -12 3 4 -13 16 -21 21 -21
13z"/>
<path d="M8522 10731 c-7 -40 -19 -86 -27 -102 -23 -44 -90 -87 -156 -101 -66
-13 -68 -22 -8 -32 110 -18 183 -94 196 -207 6 -54 22 -49 23 6 1 102 116 205
227 205 20 0 32 4 28 10 -3 6 -17 10 -30 10 -13 0 -49 9 -79 20 -87 33 -116
76 -153 229 -8 33 -9 31 -21 -38z"/>
<path d="M3125 10239 c-165 -26 -378 -117 -513 -218 -223 -169 -393 -432 -447
-696 -23 -112 -31 -322 -16 -425 32 -219 147 -451 305 -619 138 -145 335 -263
536 -320 l71 -20 9 22 c5 12 39 99 75 192 137 350 326 671 566 960 123 148
380 401 494 485 55 41 104 77 108 80 15 13 -92 156 -180 240 -179 172 -411
290 -628 320 -88 12 -302 11 -380 -1z m366 -184 c180 -31 371 -135 499 -271
48 -51 44 -49 -76 37 -95 68 -242 140 -344 169 -52 15 -115 24 -205 27 -113 5
-142 2 -215 -16 -99 -26 -242 -89 -233 -104 3 -6 1 -7 -5 -3 -12 7 -94 -43
-152 -93 -19 -17 -29 -31 -22 -31 6 0 12 3 12 8 0 4 13 16 28 27 l26 19 -21
-29 -21 -30 27 -20 c14 -11 29 -19 34 -17 4 1 6 -1 5 -5 0 -5 7 -26 17 -48 35
-81 0 -186 -77 -226 -80 -41 -170 -14 -214 65 -13 23 -24 34 -29 27 -4 -7 -1
-20 7 -29 12 -15 11 -16 -5 -3 -16 12 -21 6 -58 -73 -125 -268 -126 -589 -1
-829 47 -92 49 -99 17 -62 -62 71 -128 233 -150 368 -59 362 80 716 372 948
93 74 158 110 268 148 168 60 349 76 516 46z m-4 -61 c-3 -3 -12 -4 -19 -1 -8
3 -5 6 6 6 11 1 17 -2 13 -5z m-317 -8 c0 -2 -7 -7 -16 -10 -8 -3 -12 -2 -9 4
6 10 25 14 25 6z m-120 -30 c0 -2 -8 -10 -17 -17 -16 -13 -17 -12 -4 4 13 16
21 21 21 13z m555 -176 c-3 -5 -12 -10 -18 -10 -7 0 -6 4 3 10 19 12 23 12 15
0z m-350 -55 c0 -35 -31 -47 -51 -20 -18 25 0 57 29 53 17 -2 22 -10 22 -33z
m456 18 c13 -16 12 -17 -3 -4 -10 7 -18 15 -18 17 0 8 8 3 21 -13z m-196 -47
c-20 -46 -10 -90 29 -128 21 -21 24 -28 10 -20 -48 26 -72 95 -50 147 8 19 17
35 20 35 3 0 -1 -15 -9 -34z m233 -65 c-1 -33 -6 -57 -10 -55 -4 3 -8 -3 -8
-13 0 -15 -2 -16 -10 -3 -8 13 -10 12 -10 -2 0 -10 -4 -18 -10 -18 -5 0 -10
-5 -10 -11 0 -5 5 -7 12 -3 7 4 8 3 4 -5 -5 -8 -12 -9 -19 -3 -7 6 -31 8 -54
7 -24 -2 -45 0 -47 4 -3 4 16 8 41 8 40 0 50 4 80 36 26 29 33 45 33 77 0 22
2 40 5 40 3 0 4 -27 3 -59z m-515 -78 c-7 -2 -21 -2 -30 0 -10 3 -4 5 12 5 17
0 24 -2 18 -5z m63 -39 c18 -23 28 -49 28 -72 1 -20 5 -40 10 -43 4 -4 3 -10
-3 -13 -6 -4 -11 -2 -11 4 0 7 -5 6 -14 -2 -8 -7 -12 -16 -9 -20 2 -5 -3 -8
-12 -8 -9 0 -13 -4 -10 -10 3 -6 -1 -7 -9 -4 -9 3 -16 1 -16 -6 0 -7 -8 -9
-20 -5 -11 4 -20 2 -20 -4 0 -6 -10 -11 -22 -10 -22 0 -22 1 -3 9 17 7 17 9 3
9 -10 1 -32 14 -50 30 -28 25 -33 36 -33 75 0 37 5 51 28 73 l29 28 -26 -39
c-30 -45 -32 -65 -11 -106 19 -36 43 -50 89 -50 42 0 91 38 99 77 6 33 -17 88
-47 108 -11 8 -15 15 -9 15 7 0 24 -16 39 -36z m-688 -178 c17 -16 35 -79 20
-70 -8 5 -9 1 -5 -10 4 -10 3 -15 -4 -11 -5 4 -16 1 -24 -5 -8 -7 -25 -10 -37
-7 -12 4 -29 1 -37 -6 -14 -10 -14 -10 -3 5 9 12 11 22 4 34 -11 20 1 74 20
86 15 9 47 1 66 -16z m992 4 c-6 -11 -13 -20 -16 -20 -2 0 0 9 6 20 6 11 13
20 16 20 2 0 0 -9 -6 -20z m-1092 -98 c-7 -10 -13 -18 -14 -20 -1 -2 -4 4 -7
12 -4 9 -1 15 6 13 7 -1 11 4 9 11 -1 8 2 11 8 7 8 -5 7 -12 -2 -23z m57 -31
c-3 -2 -17 -6 -32 -7 -20 -2 -23 0 -14 6 15 8 54 10 46 1z m517 -145 c41 -15
89 -51 108 -81 7 -11 -7 -1 -33 22 -42 39 -82 56 -152 66 -28 4 -28 4 5 5 19
1 51 -5 72 -12z m-210 -58 c-17 -18 -38 -49 -46 -68 l-15 -35 2 32 c1 17 3 30
5 28 2 -2 20 14 39 36 19 21 38 39 41 39 3 0 -8 -15 -26 -32z m-65 -130 c-3
-8 -6 -5 -6 6 -1 11 2 17 5 13 3 -3 4 -12 1 -19z m15 -96 c22 -73 86 -120 178
-132 l55 -7 -46 -2 c-54 -1 -108 15 -130 41 -9 9 -19 14 -23 10 -4 -4 -6 -2
-5 3 2 6 -8 28 -22 50 -13 22 -25 56 -26 75 -1 19 1 26 3 15 3 -11 10 -35 16
-53z"/>
<path d="M8550 10119 c-113 -12 -271 -46 -288 -62 -11 -11 -11 -19 -3 -35 6
-11 11 -39 11 -61 0 -79 11 -83 175 -56 483 81 929 -49 1272 -370 209 -195
343 -422 424 -720 33 -119 33 -121 33 -345 0 -196 -3 -239 -22 -330 -51 -237
-145 -467 -283 -694 -38 -63 -69 -118 -69 -123 1 -18 132 -148 137 -135 3 7
16 25 29 41 100 119 253 413 318 611 225 687 76 1360 -406 1832 -96 95 -278
227 -389 284 -279 141 -609 198 -939 163z"/>
<path d="M8150 9642 l0 -117 80 -53 c286 -190 623 -537 833 -858 113 -174 224
-394 316 -624 l50 -125 78 -66 c43 -37 102 -96 132 -133 29 -37 55 -65 57 -63
6 5 -64 266 -103 382 -72 219 -212 512 -344 723 -191 306 -473 615 -754 827
-112 85 -322 225 -337 225 -4 0 -8 -53 -8 -118z"/>
<path d="M4569 9717 c-149 -90 -390 -288 -550 -454 -348 -359 -631 -825 -806
-1328 -24 -68 -74 -245 -69 -245 1 0 29 26 61 58 33 31 93 79 133 105 56 37
77 58 88 85 157 393 338 705 579 997 141 171 399 416 555 527 l74 53 1 118 c0
64 -3 117 -6 117 -3 0 -30 -15 -60 -33z"/>
<path d="M8150 9271 l0 -100 115 -96 c119 -100 201 -188 264 -285 19 -30 69
-93 110 -140 81 -93 165 -215 175 -253 5 -23 142 -148 256 -234 30 -23 76 -61
103 -86 26 -25 47 -44 47 -42 0 1 -25 56 -56 121 -157 335 -354 621 -608 882
-124 128 -302 278 -368 313 l-38 19 0 -99z"/>
<path d="M4589 9332 c-258 -195 -513 -484 -727 -824 -32 -51 -202 -365 -202
-374 0 0 42 21 93 47 114 59 204 146 280 272 28 48 91 129 138 181 47 51 101
120 119 152 64 113 151 211 280 313 l65 52 0 104 c0 58 -2 105 -5 104 -3 0
-21 -12 -41 -27z"/>
<path d="M2542 7679 c-8 -35 -22 -78 -33 -95 -23 -37 -105 -84 -150 -85 -30
-1 -28 -2 17 -13 104 -25 156 -83 173 -193 l7 -48 6 52 c14 106 60 160 159
187 30 8 47 15 39 15 -101 5 -178 83 -198 203 l-7 41 -13 -64z"/>
<path d="M9265 6282 c-9 -31 -42 -138 -75 -237 l-58 -180 21 -35 c11 -19 34
-59 50 -89 l30 -54 25 49 c92 179 162 382 162 465 0 41 -4 51 -31 74 -18 14
-49 35 -70 45 l-38 20 -16 -58z"/>
<path d="M3613 6235 c-51 -33 -62 -45 -63 -67 0 -25 29 -178 36 -186 2 -3 86
53 143 95 3 2 -48 197 -53 198 0 1 -29 -17 -63 -40z"/>
<path d="M9509 6013 c-16 -50 -127 -306 -177 -409 l-39 -82 14 -68 c8 -39 13
-107 11 -157 -2 -48 -2 -87 -1 -87 0 0 23 35 51 78 133 209 232 406 311 620
22 61 41 115 41 119 0 5 -24 8 -52 8 -29 0 -74 4 -100 8 l-46 8 -13 -38z"/>
<path d="M3840 5680 c-63 -55 -71 -66 -66 -89 11 -50 166 -347 249 -477 103
-162 179 -262 260 -347 l62 -65 53 24 c48 24 52 28 52 61 0 27 -13 52 -61 116
-159 212 -327 495 -425 720 l-52 119 -72 -62z"/>
<path d="M3603 5442 c-35 -36 -63 -74 -63 -83 0 -28 139 -293 219 -419 99
-155 256 -359 276 -360 11 0 142 52 175 70 20 11 18 14 -41 78 -134 147 -277
363 -410 620 -46 89 -86 162 -89 161 -3 -1 -33 -31 -67 -67z"/>
<path d="M9970 4844 c-239 -64 -382 -249 -383 -493 -1 -107 26 -189 90 -279
106 -149 284 -233 453 -213 235 28 403 174 455 393 18 79 18 125 0 211 -21
102 -57 171 -125 241 -128 133 -316 187 -490 140z m281 -117 c32 -15 77 -46
100 -68 45 -42 37 -43 -17 -3 -16 13 -52 33 -79 45 -42 19 -60 21 -127 16 -71
-6 -168 -36 -168 -52 0 -4 5 -15 10 -25 11 -21 -3 -69 -23 -82 -25 -16 -85 -9
-100 12 -14 20 -16 19 -47 -30 -53 -83 -73 -160 -67 -267 3 -50 10 -101 16
-112 19 -35 4 -24 -18 14 -64 109 -55 289 21 408 76 119 198 179 358 174 70
-2 95 -7 141 -30z"/>
<path d="M4507 4333 c-66 -35 -67 -36 -50 -56 35 -38 153 -128 235 -177 45
-27 83 -48 84 -47 2 1 -6 33 -16 71 -15 56 -27 78 -67 120 -27 28 -62 68 -77
89 -15 20 -30 37 -34 36 -4 -1 -38 -17 -75 -36z"/>
<path d="M4136 4034 c-7 -73 -37 -159 -67 -198 -26 -33 -109 -71 -194 -89
l-69 -14 64 -12 c174 -34 249 -113 267 -283 3 -32 9 -58 13 -58 4 0 10 27 13
59 17 160 88 240 248 279 l73 18 -57 12 c-77 15 -164 60 -194 98 -31 41 -63
134 -70 202 -3 28 -9 52 -13 52 -4 0 -10 -29 -14 -66z"/>
<path d="M7517 2880 c-3 -14 -12 -65 -21 -115 -19 -107 -58 -190 -105 -222
-43 -29 -132 -62 -203 -76 -63 -13 -77 -27 -25 -27 94 -1 208 -50 265 -114 36
-42 69 -138 78 -234 9 -88 22 -124 24 -62 1 62 24 168 51 229 40 95 133 155
284 182 l66 13 -87 17 c-154 31 -232 87 -270 191 -9 23 -24 88 -34 143 -11 66
-19 91 -23 75z"/>
</g>
</svg>
