<?xml version="1.0" standalone="no"?>
<!DOCTYPE svg PUBLIC "-//W3C//DTD SVG 20010904//EN"
 "http://www.w3.org/TR/2001/REC-SVG-20010904/DTD/svg10.dtd">
<svg version="1.0" xmlns="http://www.w3.org/2000/svg"
 width="2000.000000pt" height="2000.000000pt" viewBox="0 0 2000.000000 2000.000000"
 preserveAspectRatio="xMidYMid meet">

<g transform="translate(0.000000,2000.000000) scale(0.100000,-0.100000)"
fill="#000000" stroke="none">
<path d="M7065 16419 c-279 -10 -461 -36 -770 -109 -98 -24 -119 -30 -305 -91
-183 -60 -255 -90 -465 -189 -498 -236 -970 -614 -1348 -1080 -200 -246 -414
-608 -545 -926 -42 -102 -125 -339 -142 -404 -5 -19 -13 -51 -18 -70 -23 -84
-65 -270 -73 -325 -59 -369 -72 -673 -44 -980 17 -183 36 -325 55 -410 20 -90
62 -262 69 -285 5 -14 14 -45 21 -70 63 -225 218 -580 359 -818 92 -155 279
-425 343 -493 7 -8 42 -48 77 -89 35 -41 119 -129 185 -195 105 -105 168 -160
352 -310 77 -63 410 -285 428 -285 2 0 41 -21 87 -47 68 -38 79 -48 63 -54
-19 -7 -286 -30 -579 -49 -88 -6 -214 -15 -280 -20 -66 -6 -149 -10 -184 -10
-36 0 -115 -4 -175 -10 -61 -5 -196 -16 -301 -25 -104 -9 -221 -20 -260 -25
-38 -5 -110 -14 -160 -20 -179 -22 -281 -41 -512 -96 -127 -30 -308 -95 -428
-153 -255 -124 -417 -275 -491 -456 -25 -63 -28 -82 -29 -190 0 -146 16 -205
87 -310 150 -225 480 -388 918 -454 114 -17 263 -31 334 -31 42 0 110 -10 170
-25 56 -15 120 -30 144 -35 23 -6 61 -14 85 -20 89 -20 240 -51 305 -61 227
-37 303 -47 472 -64 612 -62 1245 -34 1795 81 204 42 409 93 500 123 72 25 91
26 99 6 6 -15 -41 -123 -83 -190 -42 -69 -61 -134 -61 -215 0 -150 54 -254
268 -522 86 -108 220 -276 297 -373 175 -222 272 -341 307 -380 15 -16 28 -33
28 -38 0 -16 87 -101 140 -137 30 -20 85 -49 121 -63 123 -49 323 -46 519 8
52 14 154 41 225 60 72 19 184 48 250 65 66 17 153 40 194 51 71 18 79 18 210
3 75 -8 147 -19 160 -22 18 -5 44 -40 95 -127 262 -446 530 -736 816 -884 94
-49 223 -97 330 -122 37 -9 122 -14 255 -13 241 0 313 13 565 95 205 67 504
206 732 340 64 38 121 69 126 69 5 0 22 -17 38 -37 87 -116 258 -266 297 -261
16 2 23 -3 25 -18 2 -15 22 -31 65 -52 283 -141 568 -120 758 56 139 128 213
298 225 513 l7 119 204 0 c230 0 206 9 282 -98 101 -142 280 -291 428 -358 43
-19 85 -39 94 -43 9 -5 64 -21 124 -36 99 -25 119 -27 254 -22 123 3 157 8
217 30 93 33 184 83 249 137 201 167 306 385 305 633 -1 339 -110 692 -313
1022 -41 67 -118 176 -137 195 -3 3 -27 32 -54 65 -60 73 -140 153 -221 220
-210 176 -373 262 -712 374 -131 44 -267 92 -303 108 -173 75 -467 239 -499
277 -10 12 -4 30 36 98 70 118 185 355 232 478 23 58 56 161 74 230 29 115 32
137 32 280 0 144 -2 161 -28 233 -76 217 -250 491 -465 736 -74 84 -97 117
-85 124 5 2 49 26 98 53 50 26 132 72 184 101 51 29 102 53 113 53 10 0 45
-16 76 -37 152 -97 377 -224 562 -316 205 -103 236 -117 385 -177 44 -17 89
-36 100 -41 33 -14 185 -69 265 -95 110 -35 132 -42 167 -49 17 -3 36 -12 41
-18 4 -7 16 -57 26 -112 30 -173 50 -243 97 -338 63 -127 185 -269 264 -307
89 -43 209 -15 264 61 29 39 41 78 59 184 6 33 23 131 38 218 l27 157 28 0
c41 0 79 -17 79 -35 0 -22 47 -121 81 -171 42 -62 131 -144 201 -187 68 -41
184 -81 263 -92 128 -16 243 -50 344 -102 121 -61 169 -68 226 -31 34 23 65
79 65 119 0 11 -14 52 -31 91 -55 124 -79 245 -79 391 0 198 -108 403 -275
522 -34 25 -83 54 -109 65 -38 17 -47 27 -57 61 -8 24 -9 43 -3 48 10 8 44 15
299 57 88 14 183 32 212 40 100 27 156 102 156 209 0 79 -18 113 -103 196
-146 144 -285 210 -535 254 -136 24 -138 25 -152 76 -7 24 -29 103 -48 174
-40 142 -42 151 -109 339 -191 537 -539 1167 -914 1655 -472 614 -981 1038
-1589 1323 -602 282 -1282 380 -1773 255 -201 -52 -331 -126 -418 -239 -92
-121 -154 -284 -194 -508 -20 -118 -17 -606 5 -740 10 -58 22 -130 27 -160 19
-124 116 -459 167 -580 8 -19 19 -45 24 -57 22 -56 31 -76 97 -213 58 -120
124 -240 195 -354 65 -105 91 -143 147 -221 115 -161 225 -296 339 -417 35
-37 62 -70 59 -73 -6 -7 -338 -24 -458 -25 l-85 0 -115 81 c-111 77 -444 289
-455 289 -3 0 -24 12 -47 26 -59 38 -359 185 -443 219 -93 36 -115 47 -115 55
0 4 44 49 98 101 228 220 309 368 378 699 21 103 24 408 5 510 -53 277 -119
454 -242 641 -34 51 -87 120 -118 154 -31 33 -68 76 -83 95 -45 62 -192 204
-264 255 -38 28 -109 71 -158 96 l-88 46 -75 144 c-107 204 -300 500 -420 644
-183 219 -440 473 -588 581 -22 16 -42 31 -45 34 -13 13 -162 120 -214 154
-391 252 -757 413 -1201 526 -66 17 -145 35 -175 40 -30 5 -91 16 -135 24
-226 41 -495 56 -810 45z m436 -239 c1105 -87 2075 -633 2697 -1519 106 -151
262 -419 262 -449 0 -4 -42 -9 -92 -9 -159 -3 -313 -55 -444 -148 -34 -25 -66
-45 -71 -45 -4 0 -32 39 -62 87 -132 210 -292 403 -512 618 -602 588 -1416
969 -2284 1070 -554 65 -1156 -8 -1730 -209 -112 -39 -108 -33 50 65 633 396
1446 596 2186 539z m-541 -540 c640 -76 1212 -287 1735 -641 406 -275 782
-663 1006 -1040 l40 -67 -55 -77 c-31 -42 -72 -110 -92 -151 -21 -41 -38 -74
-39 -74 -2 0 -31 51 -65 113 -309 552 -775 989 -1378 1291 -709 355 -1476 453
-2242 285 -723 -158 -1297 -505 -1691 -1021 -230 -300 -420 -698 -533 -1113
-54 -198 -12 60 49 305 146 584 480 1187 874 1580 96 96 119 113 246 182 439
241 957 391 1525 442 82 7 523 -3 620 -14z m-410 -1080 c63 -6 155 -17 204
-25 85 -15 186 -50 186 -65 0 -4 -44 -20 -97 -35 -356 -100 -831 -296 -1077
-444 -46 -28 -87 -51 -90 -51 -21 0 -341 -225 -451 -317 -400 -333 -617 -651
-702 -1028 -20 -92 -25 -146 -30 -337 -7 -269 4 -409 52 -664 62 -326 164
-663 247 -812 21 -38 19 -37 -71 26 -151 107 -311 261 -405 392 -53 74 -136
213 -140 234 -1 6 -9 25 -18 41 -44 84 -104 294 -129 455 -21 129 -16 516 9
705 84 632 331 1109 725 1403 93 69 267 182 280 182 4 0 24 11 45 23 121 77
455 203 662 251 266 62 563 86 800 66z m6650 -254 c266 -34 452 -94 577 -187
143 -107 87 -187 -137 -197 -116 -5 -210 9 -395 58 -315 84 -525 182 -525 245
0 78 216 114 480 81z m-2650 -273 c36 -9 94 -29 130 -46 l65 -30 -70 -8 c-96
-9 -148 -25 -229 -67 -356 -186 -534 -727 -420 -1277 35 -169 122 -380 213
-513 151 -222 341 -361 547 -399 l86 -16 -58 -25 c-94 -40 -222 -57 -321 -44
-184 25 -333 103 -488 257 -260 257 -409 623 -422 1035 -13 383 99 719 310
933 190 193 407 259 657 200z m3960 -151 c504 -309 962 -770 1367 -1377 306
-460 571 -1005 716 -1475 61 -197 59 -183 30 -263 -14 -40 -45 -110 -68 -157
-45 -88 -155 -263 -174 -274 -6 -4 -48 17 -94 47 -45 30 -98 60 -117 67 -27
10 -54 38 -120 128 -75 101 -180 237 -285 368 l-33 40 39 50 c168 212 198 547
72 798 -125 248 -357 402 -626 414 -161 7 -278 -23 -420 -106 l-60 -35 -271
275 c-149 151 -339 341 -423 422 l-152 146 65 98 c182 273 285 569 310 883 l7
86 81 -44 c44 -25 115 -66 156 -91z m-1240 -2 c134 -45 230 -104 258 -157 48
-89 -78 -119 -247 -58 -138 50 -320 172 -309 207 15 44 177 49 298 8z m-4810
-94 c226 -92 380 -325 380 -574 0 -210 -98 -376 -268 -454 -55 -26 -83 -32
-159 -36 -121 -6 -204 19 -310 91 -383 261 -355 855 47 989 81 27 223 20 310
-16z m2418 -14 c122 -47 276 -180 365 -315 48 -72 120 -223 147 -308 171 -533
29 -1111 -313 -1273 -130 -61 -261 -57 -402 13 -331 165 -555 637 -532 1126
11 219 62 389 163 542 77 115 161 183 279 226 68 24 217 18 293 -11z m3137
-1081 c157 -150 644 -643 645 -652 0 -4 -18 -29 -41 -55 -55 -67 -124 -213
-145 -308 -25 -115 -16 -283 20 -391 110 -325 382 -525 710 -525 153 0 284 39
400 119 24 17 48 31 53 31 9 0 125 -144 270 -334 88 -115 90 -121 76 -143 -36
-55 6 -195 98 -330 36 -52 37 -50 -61 -128 -171 -136 -338 -221 -514 -260
l-77 -17 -112 37 c-299 99 -767 317 -1052 489 -758 458 -1325 981 -1692 1560
-75 118 -213 373 -213 393 0 6 54 13 133 16 376 17 771 182 1092 457 56 49
128 118 160 154 l59 66 30 -27 c17 -16 89 -84 161 -152z m-5132 -145 c70 -21
155 -101 142 -134 -3 -7 -1 -11 4 -8 12 8 31 -49 31 -94 0 -77 -45 -156 -105
-184 -68 -32 -163 -14 -224 43 -139 131 -109 342 54 382 44 10 48 10 98 -5z
m6422 -401 c145 -31 300 -128 383 -239 210 -283 183 -654 -63 -885 -121 -113
-247 -164 -410 -165 -121 -1 -184 13 -295 67 -68 32 -101 57 -165 121 -194
195 -252 464 -155 713 109 283 412 450 705 388z m-5350 -442 c33 -28 70 -60
83 -70 l24 -18 -26 -100 c-107 -422 -310 -827 -594 -1185 -102 -128 -372 -396
-507 -504 -483 -384 -1061 -640 -1690 -750 -255 -44 -355 -50 -507 -31 -389
49 -755 153 -1098 312 -103 48 -341 175 -336 180 1 2 48 -12 104 -31 202 -68
465 -128 712 -161 161 -22 582 -31 751 -16 521 47 971 181 1394 413 702 386
1210 999 1430 1723 29 94 95 374 95 400 0 3 24 -21 53 -53 28 -31 79 -80 112
-109z m343 -203 c95 -32 195 -49 280 -50 28 0 52 -2 52 -5 0 -3 -18 -50 -39
-104 -397 -1001 -1199 -1769 -2213 -2119 -144 -50 -416 -127 -423 -120 -2 2
51 26 118 52 829 332 1483 918 1861 1666 106 208 227 533 252 673 3 20 10 37
15 37 4 0 48 -13 97 -30z m628 -59 c312 -93 725 -302 1103 -558 69 -47 128
-87 130 -89 1 -1 -8 -18 -22 -36 -14 -18 -93 -152 -176 -297 -155 -273 -171
-311 -156 -388 9 -50 37 -102 72 -134 65 -60 467 -372 506 -392 32 -17 59 -22
112 -22 65 0 77 4 165 51 81 43 532 289 552 300 3 2 54 -49 113 -115 268 -300
438 -550 500 -736 56 -167 27 -368 -96 -654 -62 -143 -220 -442 -265 -500 -5
-6 -124 99 -243 214 -57 55 -207 215 -334 355 -404 446 -566 600 -745 711 -67
41 -72 46 -72 79 0 20 -7 63 -15 95 -59 228 -222 347 -475 347 -54 0 -106 -3
-117 -6 -15 -5 -39 8 -89 47 -138 107 -348 239 -512 321 -188 94 -465 192
-639 227 -35 7 -63 16 -63 21 0 4 30 47 66 95 232 306 448 708 553 1026 13 37
28 67 36 67 7 0 57 -13 111 -29z m2450 -759 c45 -37 82 -71 83 -77 1 -5 -44
-22 -101 -36 -57 -14 -211 -54 -343 -89 -132 -34 -280 -72 -330 -85 -271 -70
-490 -128 -567 -148 -49 -13 -88 -20 -88 -15 0 5 52 101 116 214 112 197 143
238 188 250 12 3 224 15 471 28 248 13 459 24 470 25 11 0 56 -29 101 -67z
m3343 -169 c32 -193 39 -381 17 -456 -9 -31 -18 -57 -20 -57 -1 0 -61 59 -133
132 l-131 132 38 50 c46 60 135 211 169 284 14 29 27 52 31 52 3 0 17 -62 29
-137z m-3076 -42 c109 -82 124 -96 109 -106 -17 -12 -524 -289 -722 -395 -58
-31 -175 -95 -260 -142 -215 -118 -256 -138 -284 -138 -22 0 -80 43 -393 290
-53 43 -77 67 -69 72 11 6 646 237 1126 410 107 38 227 82 265 98 55 22 73 25
86 16 9 -6 73 -53 142 -105z m2590 -175 c231 -159 487 -436 616 -668 47 -86
23 -70 -39 25 -50 76 -73 106 -173 224 -20 24 -35 49 -32 54 3 5 0 7 -7 5 -7
-2 -42 28 -78 68 -56 61 -151 151 -240 227 -14 12 -53 41 -87 66 -35 25 -63
47 -63 49 0 14 35 -3 103 -50z m-5897 -216 c294 -82 644 -260 922 -468 42 -31
81 -60 86 -63 9 -7 -92 -180 -174 -297 l-51 -73 -51 73 c-136 198 -264 315
-433 398 -273 134 -571 140 -872 20 -352 -141 -652 -466 -788 -852 l-28 -78
-42 0 c-66 0 -210 -27 -320 -61 -336 -102 -695 -386 -817 -645 -25 -53 -33
-86 -36 -142 l-4 -74 -262 -128 c-178 -87 -276 -141 -308 -169 l-47 -42 -30
60 c-17 33 -67 142 -112 243 -91 207 -182 394 -233 483 -33 55 -35 58 -36 30
0 -114 56 -366 121 -547 22 -62 41 -119 42 -127 2 -16 -109 -51 -363 -116
-276 -70 -536 -114 -820 -139 -261 -23 -310 -26 -310 -15 0 5 9 42 20 82 66
235 65 605 -1 887 -44 191 -132 402 -222 532 l-46 67 42 5 c23 3 98 10 167 16
179 15 445 48 585 71 135 23 122 24 305 -24 966 -256 2016 -111 2890 401 295
172 543 366 799 624 l134 135 107 -22 c59 -13 142 -33 186 -45z m5897 -148
c16 -20 73 -85 128 -144 l100 -107 -53 -31 c-116 -67 -151 -75 -298 -74 -127
1 -293 23 -415 55 l-40 11 58 23 c145 60 317 165 422 259 28 25 55 45 60 45 6
0 23 -16 38 -37z m796 -244 c121 -57 219 -179 246 -305 6 -27 6 -27 -9 -9 -14
17 -16 18 -16 3 0 -26 -20 -20 -21 6 -1 17 -2 18 -6 4 -3 -10 1 -24 7 -32 10
-12 8 -15 -10 -15 -20 0 -21 -2 -9 -17 13 -15 12 -16 -9 -11 -12 4 -20 2 -16
-3 3 -5 -6 -14 -20 -21 -27 -12 -33 -23 -16 -33 6 -3 10 -17 10 -31 0 -30 20
-32 21 -1 1 13 3 16 6 6 2 -8 0 -26 -5 -40 -9 -23 -10 -22 -32 24 -12 26 -25
46 -27 43 -2 -2 0 -12 6 -23 5 -10 18 -39 28 -65 9 -25 21 -44 25 -42 3 2 10
-1 14 -7 4 -8 3 -9 -4 -5 -7 4 -12 5 -12 2 0 -6 34 -67 58 -104 20 -32 13 -28
-68 33 -67 49 -128 80 -155 77 -15 -2 -17 -1 -7 6 11 7 7 11 -14 16 -20 5 -30
3 -36 -8 -5 -9 -17 -16 -26 -16 -14 0 -15 -2 -2 -9 10 -7 18 -4 28 10 7 10 19
19 25 19 7 0 4 -5 -5 -11 -10 -5 -18 -19 -18 -30 0 -11 -4 -18 -9 -15 -4 3
-19 -6 -32 -20 -12 -13 -29 -22 -36 -20 -17 7 -16 1 2 -17 28 -28 -10 -27 -72
2 -89 42 -176 129 -218 216 -19 40 -35 79 -35 87 0 10 22 25 55 38 30 12 76
36 102 52 l47 30 46 -16 c151 -54 218 28 154 189 -23 58 -27 95 -8 95 3 0 36
-14 73 -32z m-6630 -109 c232 -59 434 -221 572 -457 21 -37 39 -74 39 -82 0
-8 -20 -37 -44 -64 l-43 -50 -32 47 c-44 65 -119 136 -183 174 -86 52 -98 51
-47 -3 137 -143 190 -306 219 -664 27 -326 -24 -653 -137 -875 -41 -80 -101
-172 -132 -199 l-21 -19 0 119 c-1 342 -90 635 -260 848 -220 276 -544 401
-995 382 -88 -4 -175 -4 -193 0 -30 6 -33 10 -27 33 11 44 99 222 147 296 157
241 398 426 654 500 166 48 330 53 483 14z m1317 -74 c119 -35 193 -138 202
-280 6 -90 -7 -142 -58 -250 -108 -226 -356 -542 -683 -868 -87 -87 -160 -157
-162 -155 -2 2 1 37 7 78 17 118 13 466 -6 605 -9 65 -16 125 -16 131 0 7 22
39 48 71 132 158 294 390 401 575 34 59 70 109 79 112 27 8 135 -3 188 -19z
m5571 -202 c-3 -10 -5 -4 -5 12 0 17 2 24 5 18 2 -7 2 -21 0 -30z m-107 -27
c0 -3 -4 -8 -10 -11 -5 -3 -10 -1 -10 4 0 6 5 11 10 11 6 0 10 -2 10 -4z
m-5026 -315 c136 -101 258 -222 556 -551 147 -162 333 -359 413 -437 242 -235
503 -431 760 -569 82 -44 107 -62 108 -78 0 -12 2 -30 5 -41 7 -36 -16 -315
-36 -430 -38 -221 -104 -427 -200 -623 -180 -367 -406 -590 -642 -633 -57 -10
-80 -8 -238 20 -380 69 -935 212 -1279 329 l-84 28 53 45 c105 88 245 301 265
404 l6 30 -23 -30 c-73 -93 -137 -161 -211 -220 -83 -67 -251 -159 -342 -188
-99 -32 -591 -111 -845 -136 -261 -26 -705 -40 -747 -24 -20 8 -4 23 257 258
300 269 317 286 348 353 23 48 27 71 27 142 0 104 -22 158 -114 273 -39 49
-57 79 -49 81 247 78 370 141 499 254 103 92 221 263 272 396 20 52 36 71 157
181 327 297 606 608 789 878 58 85 181 318 181 342 0 26 18 17 114 -54z m4789
62 c-7 -2 -19 -2 -25 0 -7 3 -2 5 12 5 14 0 19 -2 13 -5z m-6 -29 c-3 -3 -12
-4 -19 -1 -8 3 -5 6 6 6 11 1 17 -2 13 -5z m-11966 -136 c253 -318 367 -810
293 -1263 -15 -92 -36 -177 -56 -229 l-12 -29 -215 6 c-354 10 -704 51 -1058
122 -386 78 -446 99 -542 193 -63 63 -91 114 -99 179 -5 47 -14 41 98 63 80
15 92 26 44 38 -21 6 -86 22 -144 37 -269 67 -296 123 -136 280 44 44 123 110
174 145 106 74 101 85 -25 50 -229 -62 -393 -209 -393 -353 0 -56 15 -90 62
-134 33 -32 110 -72 138 -73 11 0 19 -20 28 -77 11 -72 65 -194 96 -216 20
-15 -160 3 -291 29 -343 68 -590 202 -674 366 -34 65 -37 176 -9 251 53 140
254 291 523 391 361 135 885 202 2134 275 16 1 35 -14 64 -51z m4234 -284
c317 -64 571 -272 688 -562 59 -145 72 -222 71 -422 0 -166 -3 -195 -26 -281
-33 -123 -77 -228 -138 -330 -87 -143 -163 -212 -228 -207 -43 4 -43 0 -8 119
14 47 32 128 41 180 16 97 33 378 22 368 -4 -3 -16 -50 -27 -105 -29 -141 -74
-272 -136 -399 -93 -187 -155 -255 -242 -262 -61 -5 -111 20 -135 68 -17 36
-17 38 12 140 59 204 102 469 115 704 l6 100 -49 -190 c-70 -273 -122 -420
-261 -741 -24 -56 -73 -109 -124 -133 -80 -39 -172 -20 -197 41 -10 25 -8 33
16 70 60 91 112 292 140 546 14 121 17 185 29 482 2 47 0 98 -3 115 -10 51
-114 -388 -172 -730 -37 -220 -76 -345 -108 -345 -37 0 -98 24 -124 48 -41 39
-56 71 -67 154 -14 98 -1 215 60 518 60 301 60 300 61 380 1 77 -13 114 -56
140 -66 41 -134 20 -205 -61 -25 -29 -75 -78 -113 -110 -75 -66 -118 -77 -152
-39 -56 62 28 226 197 386 316 298 737 434 1113 358z m532 -14 c312 -75 537
-285 637 -596 55 -172 81 -400 68 -609 l-7 -110 -95 -47 c-83 -42 -293 -109
-304 -97 -2 2 9 42 25 89 42 126 59 246 60 405 0 387 -153 714 -432 925 -91
68 -86 72 48 40z m-1897 -882 c0 -5 -15 -15 -34 -23 -18 -8 -156 -75 -306
-150 -150 -74 -277 -135 -283 -135 -38 0 95 79 327 195 244 122 296 142 296
113z m400 5 c0 -5 -19 -96 -42 -203 -39 -184 -41 -205 -43 -385 -2 -105 -8
-208 -14 -230 -79 -286 246 -676 505 -606 22 6 101 51 175 99 135 89 180 133
194 194 l7 26 47 -24 c66 -35 145 -41 227 -19 36 10 66 16 68 14 16 -24 151
-199 191 -249 29 -36 60 -79 69 -97 18 -37 21 -99 5 -140 -13 -36 -64 -89 -98
-102 -14 -6 -208 -58 -431 -116 -223 -58 -415 -108 -427 -111 -19 -5 -41 20
-175 201 -323 436 -394 529 -418 547 -18 13 -51 20 -112 25 l-87 6 -69 86
c-38 47 -102 129 -143 181 -41 52 -137 173 -213 268 -75 95 -139 179 -142 187
-6 14 191 115 726 371 167 80 200 93 200 77z m6198 -509 c390 -129 565 -232
793 -468 235 -244 407 -574 480 -917 27 -126 32 -324 10 -409 -44 -175 -157
-314 -316 -389 -282 -135 -690 9 -921 324 -46 61 -52 75 -33 75 6 0 43 21 81
46 172 115 262 326 232 548 -4 25 -10 46 -14 46 -4 0 -14 -28 -24 -62 -30
-111 -94 -226 -166 -299 -72 -73 -143 -114 -260 -150 -71 -21 -84 -22 -324
-16 -209 5 -573 31 -583 41 -2 2 20 19 49 38 140 93 304 296 423 520 161 308
275 747 275 1067 0 54 3 100 6 104 4 3 20 -1 36 -9 16 -8 131 -49 256 -90z
m-7132 -170 c396 -503 481 -607 508 -621 16 -9 66 -18 110 -21 79 -5 82 -5
107 -41 14 -20 123 -168 243 -330 119 -162 213 -297 209 -301 -4 -4 -66 -22
-136 -40 -111 -28 -142 -32 -220 -28 -104 5 -170 28 -226 81 -35 33 -665 817
-818 1019 -100 131 -116 233 -52 328 46 69 128 135 144 118 7 -7 66 -81 131
-164z m2740 -176 c50 -62 95 -126 102 -141 18 -42 15 -123 -7 -165 -16 -32
-323 -320 -352 -330 -5 -2 -9 4 -9 13 0 33 -46 104 -166 259 -69 87 -123 160
-122 162 2 1 24 -2 50 -6 122 -23 254 70 375 263 20 31 37 57 38 57 1 0 42
-51 91 -112z m-1660 -164 c31 -6 38 -13 58 -58 13 -28 35 -64 50 -79 14 -15
26 -30 26 -32 0 -11 -72 -34 -88 -28 -15 5 -14 3 3 -17 18 -21 16 -21 -17 4
-68 51 -135 149 -152 221 -4 17 -9 38 -12 47 -4 13 8 8 46 -17 28 -19 67 -37
86 -41z m3170 -860 c112 -36 204 -68 204 -72 0 -17 -93 -128 -168 -199 l-85
-82 49 13 c108 29 191 77 295 173 l61 57 66 -18 c37 -10 70 -21 74 -25 4 -3
12 -58 17 -121 16 -183 -6 -342 -66 -481 -25 -58 -29 -62 -103 -99 -265 -133
-503 -218 -714 -255 -111 -19 -311 -19 -408 -1 -312 60 -585 272 -852 663 -75
110 -186 291 -186 304 0 3 109 9 243 12 242 6 487 29 725 67 150 25 442 84
537 109 39 10 78 19 89 20 10 0 110 -29 222 -65z m854 -239 c348 -82 666 -138
985 -173 l160 -18 6 -29 c13 -58 9 -207 -7 -282 -42 -203 -165 -321 -345 -331
-125 -7 -249 33 -373 122 -73 52 -204 188 -260 268 l-38 56 41 44 c35 36 107
135 136 186 4 8 -12 2 -35 -13 -24 -15 -102 -60 -174 -100 -72 -40 -177 -101
-234 -135 -56 -35 -104 -61 -107 -58 -3 3 2 36 12 74 14 53 18 111 18 257 0
162 2 186 15 181 8 -3 98 -25 200 -49z"/>
<path d="M13931 12976 c-17 -20 -3 -46 25 -46 19 0 24 5 24 24 0 13 -7 27 -16
30 -21 8 -20 8 -33 -8z"/>
<path d="M16527 10766 c-3 -8 0 -21 6 -31 17 -22 47 -9 47 21 0 19 -5 24 -24
24 -13 0 -26 -6 -29 -14z"/>
<path d="M16393 10523 c-17 -6 -16 -38 0 -52 21 -17 56 12 41 35 -12 20 -23
25 -41 17z"/>
<path d="M13794 12815 c-9 -23 3 -45 26 -45 25 0 37 25 20 45 -16 19 -39 19
-46 0z"/>
<path d="M15921 10022 c-12 -22 3 -42 30 -42 22 0 33 28 18 46 -16 19 -36 17
-48 -4z"/>
<path d="M15684 9895 c-9 -23 3 -45 25 -45 23 0 35 28 20 46 -15 18 -38 18
-45 -1z"/>
<path d="M15163 11946 c-91 -22 -181 -74 -253 -145 -331 -327 -105 -867 361
-863 292 2 529 236 529 522 0 137 -47 248 -151 351 -126 126 -310 177 -486
135z m243 -101 c27 -8 74 -29 104 -47 72 -43 100 -99 107 -213 4 -68 1 -91
-21 -153 -28 -81 -65 -137 -123 -186 -148 -127 -383 -141 -533 -32 -37 27 -49
44 -68 97 -36 105 -26 213 33 329 26 51 113 138 166 165 100 53 237 69 335 40z
m278 -507 c-9 -29 -23 -66 -32 -82 -23 -47 -111 -134 -167 -166 -59 -34 -159
-60 -225 -59 -42 1 -39 2 40 22 47 12 115 39 152 60 84 47 175 145 214 231 33
74 44 70 18 -6z"/>
<path d="M16772 9063 c6 -7 14 -13 18 -13 3 0 7 6 7 13 0 7 -8 13 -18 13 -13
0 -15 -3 -7 -13z"/>
<path d="M16831 9036 c2 -2 15 -9 29 -15 24 -11 24 -11 6 3 -16 13 -49 24 -35
12z"/>
</g>
</svg>
