<?xml version="1.0" standalone="no"?>
<!DOCTYPE svg PUBLIC "-//W3C//DTD SVG 20010904//EN"
 "http://www.w3.org/TR/2001/REC-SVG-20010904/DTD/svg10.dtd">
<svg version="1.0" xmlns="http://www.w3.org/2000/svg"
 width="451.000000pt" height="447.000000pt" viewBox="0 0 451.000000 447.000000"
 preserveAspectRatio="xMidYMid meet">

<g transform="translate(0.000000,447.000000) scale(0.100000,-0.100000)"
fill="#000000" stroke="none">
<path d="M2162 4350 c-322 -45 -550 -199 -593 -399 -10 -49 -11 -50 -52 -55
-23 -3 -64 -8 -92 -12 -141 -17 -325 -82 -515 -180 -184 -95 -410 -279 -410
-334 0 -15 6 -32 13 -38 10 -9 275 -81 390 -106 21 -5 27 -12 27 -34 1 -36 32
-102 61 -129 89 -81 245 -65 307 31 14 23 27 42 27 44 2 3 316 -45 320 -50 1
-2 -256 -633 -571 -1403 -315 -770 -574 -1409 -574 -1420 0 -43 60 -63 79 -27
9 17 1002 2442 1097 2679 27 68 52 123 56 123 5 0 30 -16 56 -35 63 -45 182
-100 257 -120 133 -34 374 -38 495 -9 113 27 236 80 318 136 24 17 45 28 46
26 1 -1 112 -273 245 -603 615 -1520 885 -2181 899 -2197 8 -10 23 -18 32 -18
16 0 50 29 50 43 0 7 -247 616 -833 2052 -172 424 -313 771 -313 772 1 1 69
11 153 24 l152 23 43 -47 c51 -54 99 -77 162 -77 104 0 181 65 195 165 l6 40
70 18 c413 107 416 109 298 217 -244 223 -540 378 -812 424 -52 9 -112 16
-133 16 -37 0 -38 1 -38 36 0 20 -14 65 -30 99 -69 144 -275 273 -505 315 -82
15 -306 21 -383 10z m338 -101 c198 -27 388 -129 456 -244 15 -26 27 -66 30
-97 7 -78 -22 -123 -106 -165 -98 -49 -204 -65 -492 -70 -273 -6 -425 5 -552
39 -67 18 -87 28 -128 68 -49 47 -53 59 -48 135 10 163 272 323 564 344 104 7
169 5 276 -10z m-916 -476 c45 -87 152 -145 320 -176 96 -17 152 -20 411 -20
262 0 315 2 415 21 172 31 270 81 321 162 l24 39 60 -5 c155 -14 291 -53 446
-127 97 -46 262 -153 340 -219 l44 -38 -1654 0 -1654 0 19 21 c29 32 142 112
230 163 195 113 460 202 606 205 53 1 59 -1 72 -26z m2305 -407 c-9 -9 -250
-66 -424 -100 -509 -100 -840 -133 -1240 -123 -259 7 -383 17 -633 53 -276 39
-852 154 -852 170 0 2 710 4 1577 4 867 0 1574 -2 1572 -4z m-2740 -147 c52
-12 91 -26 91 -33 0 -22 -33 -58 -66 -72 -77 -32 -169 34 -143 104 10 27 7 27
118 1z m2437 -65 c-26 -39 -78 -57 -126 -44 -40 11 -76 48 -68 72 2 6 47 22
99 33 l94 22 9 -28 c6 -21 4 -35 -8 -55z m-761 -49 c-45 -37 -201 -113 -275
-132 -50 -14 -105 -18 -235 -18 -130 0 -185 4 -235 18 -74 19 -230 95 -275
132 l-30 25 540 0 540 0 -30 -25z"/>
<path d="M2364 4175 c-10 -25 4 -32 83 -38 154 -12 282 -61 371 -142 49 -44
54 -47 70 -32 15 16 12 20 -36 66 -78 76 -176 121 -317 147 -105 18 -164 18
-171 -1z"/>
<path d="M2886 3932 c-9 -14 6 -91 20 -103 30 -25 46 29 24 85 -9 25 -33 35
-44 18z"/>
<path d="M1183 3669 c-77 -15 -123 -48 -123 -89 0 -93 239 -128 328 -47 45 42
17 103 -58 125 -57 17 -102 20 -147 11z m165 -73 c30 -30 -20 -57 -108 -57
-58 -1 -130 22 -130 40 0 44 197 58 238 17z"/>
<path d="M3283 3670 c-133 -27 -164 -114 -57 -162 113 -49 284 -6 284 72 0 62
-122 110 -227 90z m165 -74 c30 -30 -20 -57 -108 -57 -58 -1 -130 22 -130 40
0 44 197 58 238 17z"/>
<path d="M2790 2743 c0 -30 654 -1655 668 -1661 7 -2 18 0 23 5 7 7 -103 294
-322 842 -269 671 -336 831 -351 831 -10 0 -18 -7 -18 -17z"/>
<path d="M2145 2603 c-47 -6 -147 -41 -179 -62 -44 -29 -126 -111 -142 -143
-10 -19 -39 -39 -89 -64 -94 -46 -159 -102 -191 -167 -63 -123 -10 -225 159
-306 198 -96 491 -123 759 -70 378 75 507 271 309 469 -25 25 -74 60 -108 76
-33 16 -68 41 -77 55 -61 101 -173 179 -293 204 -67 15 -90 16 -148 8z m231
-87 c120 -60 199 -166 220 -295 l6 -39 -82 -26 c-200 -64 -438 -61 -660 6
l-45 14 1 50 c0 33 10 68 29 108 99 200 333 279 531 182z m-607 -251 c-6 -20
-9 -55 -7 -78 l3 -42 83 -28 c198 -66 446 -74 642 -19 170 48 164 43 156 105
-3 28 -9 63 -12 75 -7 24 -6 24 22 9 92 -48 172 -164 160 -230 -31 -165 -451
-287 -806 -232 -137 21 -205 40 -296 85 -159 78 -190 174 -93 284 35 40 129
106 151 106 3 0 2 -16 -3 -35z"/>
<path d="M2109 2456 c-92 -35 -158 -101 -180 -181 -8 -29 -8 -40 2 -46 18 -11
29 -2 46 40 35 82 99 135 184 149 35 6 44 12 44 27 0 25 -44 30 -96 11z"/>
<path d="M2572 2079 c-52 -34 -56 -83 -8 -115 35 -22 91 -11 128 26 34 35 35
54 3 85 -30 31 -78 32 -123 4z m94 -40 c13 -22 -60 -49 -79 -30 -9 10 -8 16 7
27 24 17 62 18 72 3z"/>
<path d="M1762 2064 c-47 -33 -19 -106 50 -124 69 -19 118 16 106 76 -5 26
-66 64 -102 64 -17 0 -42 -7 -54 -16z m103 -54 c17 -19 17 -20 0 -26 -24 -10
-69 8 -73 29 -5 25 50 23 73 -3z"/>
<path d="M2158 1985 c-49 -27 -48 -84 2 -110 68 -35 170 -3 170 54 0 61 -101
94 -172 56z m118 -46 c14 -24 -63 -40 -95 -20 -24 15 -1 31 44 31 24 0 47 -5
51 -11z"/>
<path d="M1856 1643 c-105 -277 -109 -293 -77 -293 10 0 22 8 26 18 65 166
115 307 115 322 0 13 -7 20 -19 20 -15 0 -26 -17 -45 -67z"/>
<path d="M2535 1698 c-6 -16 109 -326 128 -345 8 -8 17 -9 27 -3 12 7 3 37
-51 182 -45 118 -71 174 -83 176 -9 2 -18 -3 -21 -10z"/>
<path d="M2103 1618 c-10 -13 -53 -299 -53 -350 0 -32 17 -46 34 -27 15 16 62
350 53 373 -8 19 -21 20 -34 4z"/>
<path d="M2322 1617 c-12 -14 33 -366 49 -382 6 -6 14 -4 24 6 13 12 11 35
-10 189 -14 96 -25 178 -25 181 0 13 -29 17 -38 6z"/>
<path d="M1356 939 c-9 -23 -14 -44 -11 -47 3 -3 5 0 5 6 0 24 18 11 29 -19
16 -46 14 -49 -20 -49 -29 0 -31 2 -25 28 3 15 -8 -2 -24 -37 -17 -35 -30 -65
-30 -67 0 -2 9 -4 21 -4 15 0 19 5 14 19 -10 34 4 51 45 51 39 0 50 -11 50
-51 0 -15 7 -19 35 -19 40 0 42 3 16 36 -10 13 -31 59 -47 102 -15 42 -30 81
-34 85 -4 5 -15 -11 -24 -34z"/>
<path d="M1505 865 l0 -115 29 0 c22 0 27 4 22 16 -3 9 -6 60 -6 115 0 96 -1
99 -22 99 -23 0 -23 -2 -23 -115z"/>
<path d="M1592 963 c5 -26 38 -29 38 -4 0 15 -6 21 -21 21 -14 0 -19 -5 -17
-17z"/>
<path d="M1765 865 c0 -104 2 -115 18 -115 14 0 16 4 7 19 -11 22 -14 138 -3
127 4 -4 19 -36 33 -71 14 -35 29 -65 34 -67 4 -1 26 40 47 92 l39 95 -2 -98
-3 -97 25 0 25 0 -3 100 c-3 69 0 105 8 115 11 13 8 15 -18 15 -29 0 -32 -4
-64 -85 -18 -47 -35 -85 -38 -85 -3 0 -20 38 -38 85 -24 59 -39 85 -50 85 -15
0 -17 -14 -17 -115z"/>
<path d="M2784 935 c-4 -8 -17 -15 -30 -15 l-24 0 20 -20 c27 -27 25 -56 -6
-85 -31 -28 -29 -29 15 -14 43 15 56 50 35 90 -15 29 -14 31 5 36 24 6 28 23
6 23 -9 0 -18 -7 -21 -15z"/>
<path d="M1585 835 l0 -85 29 0 c22 0 27 4 22 16 -3 9 -6 47 -6 85 0 65 -1 69
-22 69 -22 0 -23 -4 -23 -85z"/>
<path d="M2022 908 c-16 -16 -15 -28 3 -28 9 0 18 7 21 15 8 20 40 19 48 -1
10 -27 7 -31 -34 -38 -54 -8 -74 -43 -46 -81 10 -15 28 -20 73 -21 l60 -2 -5
56 c-6 85 -19 106 -67 110 -23 2 -46 -3 -53 -10z m78 -99 c0 -38 -1 -40 -27
-37 -33 4 -43 37 -18 62 29 29 45 20 45 -25z"/>
<path d="M2169 907 c14 -14 14 -112 1 -138 -10 -17 -7 -19 26 -19 30 0 35 3
29 18 -14 34 -17 99 -6 121 13 24 41 29 41 7 0 -21 21 -31 30 -16 17 28 -1 38
-67 38 -47 0 -62 -3 -54 -11z"/>
<path d="M2322 908 c-7 -7 -12 -16 -12 -20 0 -14 29 -8 38 8 12 22 46 14 50
-12 3 -18 -4 -22 -37 -28 -55 -8 -75 -43 -47 -81 10 -15 28 -20 73 -21 l59 -2
-4 61 c-5 82 -22 107 -70 107 -21 0 -43 -5 -50 -12z m78 -99 c0 -38 -1 -40
-27 -37 -33 4 -43 37 -18 62 29 29 45 20 45 -25z"/>
<path d="M2469 907 c14 -14 15 -112 1 -138 -10 -17 -7 -19 22 -19 l33 0 -3 74
c-3 62 -1 74 13 80 10 3 24 1 31 -5 17 -14 19 -101 4 -130 -10 -17 -7 -19 26
-19 29 0 35 3 30 16 -3 9 -9 41 -12 72 -4 32 -11 62 -16 69 -6 7 -36 12 -75
12 -49 0 -63 -3 -54 -12z"/>
<path d="M2669 910 c-25 -15 -32 -58 -15 -85 13 -20 13 -25 1 -35 -21 -17 -19
-41 4 -47 13 -3 18 -10 14 -20 -8 -19 22 -43 53 -43 12 0 30 8 41 18 10 9 14
14 9 10 -19 -15 -61 -8 -73 11 -12 18 -9 20 33 27 32 4 49 3 54 -6 5 -8 9 -7
14 6 13 34 -16 48 -76 36 -29 -5 -56 -8 -61 -5 -13 8 3 23 25 23 20 0 20 1 5
18 -23 25 -21 58 3 82 18 18 18 20 3 20 -10 0 -25 -5 -34 -10z"/>
<path d="M2841 894 c-44 -56 -17 -130 51 -141 32 -5 41 -1 69 26 27 28 31 37
26 69 -8 47 -38 72 -87 72 -30 0 -43 -6 -59 -26z m103 -21 c11 -39 -2 -91 -26
-107 -42 -26 -78 68 -47 125 17 33 61 22 73 -18z"/>
<path d="M3000 912 c0 -4 16 -6 36 -4 l35 4 -35 -71 c-20 -39 -36 -75 -36 -81
0 -15 102 -8 107 7 4 10 -3 10 -27 2 -17 -6 -34 -8 -38 -5 -3 4 11 40 31 81
l37 75 -55 0 c-30 0 -55 -4 -55 -8z"/>
<path d="M3570 793 c0 -30 154 -405 168 -411 38 -14 30 23 -49 221 -65 163
-86 207 -101 207 -10 0 -18 -7 -18 -17z"/>
<path d="M1236 594 c-9 -8 -16 -22 -16 -30 0 -8 -3 -14 -7 -14 -5 0 -8 -38 -8
-85 0 -84 0 -85 25 -85 25 0 25 0 22 79 -4 77 -3 79 19 84 l24 4 -23 2 c-18 1
-23 6 -20 23 4 30 38 37 38 9 0 -14 6 -21 20 -21 22 0 26 20 8 38 -17 17 -64
15 -82 -4z"/>
<path d="M892 584 c-35 -24 -30 -71 10 -92 70 -37 91 -79 54 -104 -7 -5 -4 -8
6 -8 25 0 48 28 48 59 0 30 -18 50 -64 72 -40 19 -54 43 -37 63 19 22 58 20
73 -4 15 -24 28 -26 28 -5 0 34 -79 47 -118 19z"/>
<path d="M2210 585 c8 -10 11 -45 8 -110 -3 -93 -3 -95 20 -95 21 0 22 3 22
105 0 103 0 105 23 105 69 0 96 -128 40 -185 -21 -20 -23 -25 -9 -25 10 0 31
13 47 29 24 24 29 38 29 76 0 25 -5 55 -10 66 -17 30 -64 49 -126 49 -48 0
-55 -2 -44 -15z"/>
<path d="M2848 504 c2 -63 -1 -100 -9 -110 -9 -12 -6 -14 22 -14 l34 0 -3 110
c-3 106 -4 110 -25 110 -21 0 -22 -3 -19 -96z"/>
<path d="M1335 561 c-17 -22 -19 -36 -15 -93 6 -79 25 -107 59 -89 11 7 21 17
21 24 0 8 -3 8 -9 -2 -17 -27 -31 1 -31 64 0 52 3 64 18 68 15 4 15 5 0 6 -9
1 -18 11 -20 24 l-3 24 -20 -26z"/>
<path d="M1074 536 c-35 -15 -44 -32 -44 -81 0 -50 29 -80 80 -80 53 0 80 29
80 86 0 37 -26 79 -49 79 -5 0 -15 2 -23 5 -7 2 -27 -2 -44 -9z m62 -17 c39
-44 9 -152 -39 -134 -50 20 -39 147 14 154 3 1 14 -8 25 -20z"/>
<path d="M1691 537 c-32 -16 -39 -37 -12 -37 12 0 21 6 21 14 0 22 19 30 35
16 26 -21 17 -38 -27 -52 -38 -11 -43 -17 -46 -45 -4 -44 27 -63 88 -56 l45 5
-5 65 c-5 52 -10 69 -29 84 -27 22 -37 23 -70 6z m59 -102 c0 -37 -3 -45 -19
-45 -25 0 -44 25 -37 48 5 15 31 35 54 41 1 1 2 -19 2 -44z"/>
<path d="M1896 543 c-4 -4 -21 -6 -39 -5 l-32 2 0 -80 c0 -79 0 -80 25 -80 24
0 25 2 25 72 0 59 3 73 16 76 10 2 19 -5 22 -18 6 -24 25 -26 34 -4 9 24 -33
54 -51 37z"/>
<path d="M2000 539 c-33 -13 -40 -26 -40 -74 0 -61 23 -87 73 -83 23 2 42 9
45 16 3 11 0 12 -16 3 -24 -13 -59 11 -64 44 -3 17 3 20 45 23 37 2 47 7 47
21 0 41 -46 67 -90 50z m48 -32 c3 -24 0 -27 -27 -27 -25 0 -29 3 -24 18 17
48 46 53 51 9z"/>
<path d="M2448 539 c-66 -25 -48 -159 21 -159 36 0 61 9 61 21 0 6 -8 5 -19
-1 -23 -12 -55 12 -66 48 -6 21 -3 22 44 22 42 0 51 3 51 18 0 9 -4 22 -8 28
-7 10 -47 35 -54 33 -2 0 -15 -5 -30 -10z m50 -32 c3 -24 0 -27 -28 -27 -28 0
-31 2 -24 23 14 44 47 47 52 4z"/>
<path d="M2733 540 c-73 -29 -47 -160 32 -160 18 0 38 6 44 14 9 11 6 12 -14
8 -30 -5 -65 21 -65 50 0 15 8 18 50 18 55 0 63 12 33 48 -22 25 -51 33 -80
22z m45 -12 c7 -7 12 -20 12 -30 0 -13 -8 -18 -30 -18 -32 0 -36 9 -20 41 12
22 21 24 38 7z"/>
<path d="M2950 533 c-43 -22 -59 -67 -39 -109 42 -86 159 -59 159 36 0 38 -26
80 -49 80 -5 0 -15 2 -23 5 -7 3 -29 -3 -48 -12z m62 -10 c26 -23 25 -104 -1
-127 -15 -14 -24 -15 -39 -7 -38 20 -40 119 -4 141 22 13 23 13 44 -7z"/>
<path d="M3120 541 l-35 -6 0 -118 0 -117 27 0 c25 0 26 2 21 38 -5 38 -4 39
26 39 46 0 74 31 74 83 0 65 -40 93 -113 81z m58 -14 c19 -22 24 -65 12 -101
-9 -28 -17 -36 -36 -36 -23 0 -24 3 -24 63 0 74 21 107 48 74z"/>
<path d="M3300 543 c-50 -18 -68 -93 -34 -141 18 -26 84 -31 104 -7 14 17 7
19 -19 5 -25 -13 -61 14 -61 46 0 22 4 24 45 24 37 0 45 3 45 18 0 37 -45 68
-80 55z m40 -29 c14 -35 14 -34 -20 -34 -22 0 -30 5 -30 18 0 19 18 42 32 42
5 0 13 -12 18 -26z"/>
<path d="M3480 531 c0 -21 23 -45 33 -34 13 12 7 41 -9 47 -23 9 -24 8 -24
-13z"/>
<path d="M1424 518 c7 -13 22 -45 31 -73 23 -64 31 -72 44 -47 8 15 7 28 -6
52 -9 18 -16 46 -17 62 -1 25 -5 28 -34 28 -31 0 -32 -1 -18 -22z"/>
<path d="M1515 508 c6 -18 19 -50 28 -70 10 -21 17 -42 17 -48 0 -19 17 -10
28 15 14 31 15 38 3 31 -8 -5 -31 58 -31 88 0 11 -9 16 -29 16 -28 0 -28 -1
-16 -32z"/>
<path d="M1616 527 c3 -8 0 -26 -6 -42 -17 -45 -6 -38 16 11 19 41 20 44 3 44
-11 0 -16 -5 -13 -13z"/>
<path d="M2575 464 c18 -41 35 -78 38 -81 3 -3 13 12 22 32 8 21 13 40 10 43
-3 3 -5 0 -5 -6 0 -31 -20 -7 -31 38 -11 45 -16 50 -40 50 l-27 0 33 -76z"/>
<path d="M2657 508 c-6 -44 -4 -44 16 -3 13 28 14 35 3 35 -8 0 -16 -14 -19
-32z"/>
<path d="M3395 460 c0 -79 0 -80 26 -80 25 0 25 1 21 60 -3 47 -1 65 12 79 15
17 14 18 -21 19 l-38 2 0 -80z"/>
<path d="M870 418 c0 -30 3 -33 45 -42 30 -6 30 -6 6 8 -13 7 -30 24 -37 37
l-13 24 -1 -27z"/>
</g>
</svg>
